<mxfile host="app.diagrams.net" modified="2021-12-14T23:44:33.981Z" agent="5.0 (Windows NT 10.0; Win64; x64) AppleWebKit/537.36 (KHTML, like Gecko) Chrome/96.0.4664.93 Safari/537.36" etag="3UI3Y_OgMyDwSmnLU6na" version="15.9.6" type="github">
  <diagram id="gNfOMcQ6Xfm5AFeHPi0f" name="Page-1">
    <mxGraphModel dx="8998" dy="5011" grid="1" gridSize="10" guides="1" tooltips="1" connect="1" arrows="1" fold="1" page="1" pageScale="1" pageWidth="1169" pageHeight="827" math="0" shadow="0">
      <root>
        <mxCell id="0" />
        <mxCell id="1" parent="0" />
        <mxCell id="B9S7GfdaR4YtxmO8wC_m-5" value="Jugador" style="swimlane;fontStyle=3;align=center;verticalAlign=top;childLayout=stackLayout;horizontal=1;startSize=26;horizontalStack=0;resizeParent=1;resizeParentMax=0;resizeLast=0;collapsible=1;marginBottom=0;rounded=0;dashed=1;" parent="1" vertex="1">
          <mxGeometry x="-1175" y="-1370" width="780" height="840" as="geometry" />
        </mxCell>
        <mxCell id="B9S7GfdaR4YtxmO8wC_m-6" value="-arbol_materiales:Diccionario&lt;Materiales_jugador&gt; *&#xa;  -vector_edificios:Vector &lt;Edificios_jugador&gt; *&#xa;  -num_jugador:int &#xa;  -fila, columna:int &#xa;  -monedas_adquiridas:int &#xa;  -max_escuelas:int &#xa;  -bombas_usadas:int &#xa;  -bombas_compradas:int &#xa;  -inicial_jugador:char" style="text;strokeColor=none;fillColor=none;align=left;verticalAlign=top;spacingLeft=4;spacingRight=4;overflow=hidden;rotatable=0;points=[[0,0.5],[1,0.5]];portConstraint=eastwest;rounded=0;dashed=1;" parent="B9S7GfdaR4YtxmO8wC_m-5" vertex="1">
          <mxGeometry y="26" width="780" height="134" as="geometry" />
        </mxCell>
        <mxCell id="B9S7GfdaR4YtxmO8wC_m-7" value="" style="line;strokeWidth=1;fillColor=none;align=left;verticalAlign=middle;spacingTop=-1;spacingLeft=3;spacingRight=3;rotatable=0;labelPosition=right;points=[];portConstraint=eastwest;rounded=0;dashed=1;" parent="B9S7GfdaR4YtxmO8wC_m-5" vertex="1">
          <mxGeometry y="160" width="780" height="8" as="geometry" />
        </mxCell>
        <mxCell id="B9S7GfdaR4YtxmO8wC_m-8" value="+numero_aleatorio(int limite_inferior, int limite_superior):int&#xa;+asignar_objetivos():void&#xa;Jugador();&#xa;+anadir_material(string nombre_material, int cantidad_material):void&#xa;+devolver_bombas():int&#xa;+devolver_energia():int&#xa;+actualizar_max_escuelas(int max_escuelas_permitidas):void&#xa;+devolver_bombas_usadas():int&#xa;+devolver_bombas_compradas():int&#xa;+devolver_andycoins():int&#xa;+devolver_piedra():int&#xa;+modificar_energia(int energia):void&#xa;+sumar_monedas_adquiridas(int adquirido):void&#xa;+devolvder_monedas_adquiridas ():int&#xa;+anadir_edificio(string nombre_edificio, int fila, int columna):void&#xa;+devolver_vector_edificios():Vector &lt;Edificios_jugador&gt; *&#xa;+devolver_arbol_materiales():ABB&lt;Materiales_jugador&gt; *&#xa;+devolver_num_jugador():int&#xa;+actualizar_monedas(int incremento):void&#xa;+recolectar_recursos_producidos(ABB &lt;Edificios&gt;* arbol_edificios):void&#xa;+devolver_max_escuelas():int&#xa;+imprimir_mis_materiales():void&#xa;~Jugador();&#xa;+atacar_edificio(Mapa* mapa, ABB&lt;Edificios&gt;* arbol_edificios,Vector&lt;Edificios_jugador&gt;* edificios_jugador_rival):void&#xa;+listar_mis_edificios():void&#xa;+modificar_coordenadas(int fila, int columna):void&#xa;+reparar_edificio(Mapa* mapa, ABB&lt;Edificios&gt;* arbol_edificios):void&#xa;+comprar_bombas():void&#xa;+mover_jugador(Mapa *mapa,Mapa* mapa_base,Vector &lt;Material&gt;* vector_materiales_mapa):void&#xa;-sumar_bombas_compradas(int cantidad_comprada):void&#xa;-calcular_costo(Casillero *casilla,Mapa *mapa_base,bool *es_camino,int fila,int columna):int&#xa;-chequear_material(char caracter_material,int fila_material,int columna_material,Vector &lt;Material&gt;* vector_materiales_mapa):void&#xa;-agregar_vertices(Grafo *grafo,Mapa *mapa):void&#xa;-agregar_caminos_de_filas(Grafo *grafo, Mapa *mapa, Mapa *mapa_base,int fila,int columna):void&#xa;-agregar_caminos_de_columnas(Grafo *grafo, Mapa *mapa, Mapa *mapa_base,int fila,int columna):void&#xa;-imprimir_paso(Vector &lt;string&gt; *vector_camino,Mapa *mapa_base,string destino,Mapa *mapa,Vector &lt;Material&gt;* vector_materiales_mapa):void&#xa;string extraer_coordenadas(Edificios_jugador *edificio_aux);  &#xa;-apto_para_atacar(Casillero *casilla_a_atacar):bool  &#xa;-mostrar_jugador() = 0:virtualvoid &#xa;-coste_casilla_especial(char tipo_casilla) = 0:virtual int&#xa;-devolver_num_jugador_rival() = 0:virtual int&#xa;-modificar_andycoins(int andycoins):void&#xa;-modificar_bombas(int bombas); :void&#xa;-modificar_madera(int madera); :void&#xa;-modificar_metal(int metal); :void&#xa;-modificar_piedra(int piedra):void&#xa;-listar_material(Nodo &lt;Materiales_jugador&gt; *nodo):void&#xa;&#xa;" style="text;strokeColor=none;fillColor=none;align=left;verticalAlign=top;spacingLeft=4;spacingRight=4;overflow=hidden;rotatable=0;points=[[0,0.5],[1,0.5]];portConstraint=eastwest;rounded=0;dashed=1;" parent="B9S7GfdaR4YtxmO8wC_m-5" vertex="1">
          <mxGeometry y="168" width="780" height="672" as="geometry" />
        </mxCell>
        <mxCell id="B9S7GfdaR4YtxmO8wC_m-18" value="JUEGO" style="swimlane;fontStyle=1;align=center;verticalAlign=top;childLayout=stackLayout;horizontal=1;startSize=26;horizontalStack=0;resizeParent=1;resizeParentMax=0;resizeLast=0;collapsible=1;marginBottom=0;rounded=0;" parent="1" vertex="1">
          <mxGeometry x="-940" y="-2380" width="700" height="700" as="geometry" />
        </mxCell>
        <mxCell id="B9S7GfdaR4YtxmO8wC_m-20" value="" style="line;strokeWidth=1;fillColor=none;align=left;verticalAlign=middle;spacingTop=-1;spacingLeft=3;spacingRight=3;rotatable=0;labelPosition=right;points=[];portConstraint=eastwest;rounded=0;" parent="B9S7GfdaR4YtxmO8wC_m-18" vertex="1">
          <mxGeometry y="26" width="700" height="8" as="geometry" />
        </mxCell>
        <mxCell id="B9S7GfdaR4YtxmO8wC_m-19" value="- arbol_edificios: ABB&lt;Edificio&gt;* &#xa;- vector_ubicaciones_material: Vector &lt;Material&gt;*&#xa;- jugador_1:Jugador *&#xa;- jugador_2:Jugador *&#xa;-objetivos_jugador_1:Vector &lt;Objetivo&gt; *&#xa;    -objetivos_jugador_2:Vector &lt;Objetivo&gt; *&#xa;    -mapa:Mapa *&#xa;    -mapa_aux:Mapa *&#xa;-funcion:Funciones_auxiliares_juego &#xa;" style="text;strokeColor=none;fillColor=none;align=left;verticalAlign=top;spacingLeft=4;spacingRight=4;overflow=hidden;rotatable=0;points=[[0,0.5],[1,0.5]];portConstraint=eastwest;rounded=0;" parent="B9S7GfdaR4YtxmO8wC_m-18" vertex="1">
          <mxGeometry y="34" width="700" height="146" as="geometry" />
        </mxCell>
        <mxCell id="E-rghlNcItKewctkxyXF-2" value="" style="endArrow=none;html=1;rounded=0;entryX=1.003;entryY=-0.004;entryDx=0;entryDy=0;entryPerimeter=0;" parent="B9S7GfdaR4YtxmO8wC_m-18" target="B9S7GfdaR4YtxmO8wC_m-21" edge="1">
          <mxGeometry width="50" height="50" relative="1" as="geometry">
            <mxPoint y="181" as="sourcePoint" />
            <mxPoint x="350" y="181" as="targetPoint" />
          </mxGeometry>
        </mxCell>
        <mxCell id="B9S7GfdaR4YtxmO8wC_m-21" value="+Juego()&#xa;+cargar_archivos(bool *es_partida_nueva): bool&#xa;+agregar_ubicaciones():void&#xa;+mostrar_edificios():void&#xa;+mostrar_materiales():void&#xa;+mostrar_edificios_construidos():void&#xa;+menu(bool es_partida_nueva):void&#xa;+recolectar_materiales():void&#xa;+consultar_coordenada():void&#xa;+ejecutar_lluvia_materiales():void&#xa;+demoler_edificio():void&#xa;+procesar_opcion_construir():void&#xa;+guardar():void&#xa;+~Juego()&#xa;-es_ganador(Jugador *jugador,Vector &lt;Objetivo&gt; *vector_objetivos): bool &#xa;-devolver_pos_vector(string nombre_a_buscar): int &#xa;-procesar_opcion(Jugador *jugador,Jugador* rival,Vector &lt;Objetivo&gt; *vector_objetivos ):int &#xa;-menu_partida_nueva(bool *comenzo_la_partida):void&#xa;-procesar_opcion_partida_nueva(bool *comenzo_la_partida):void&#xa;  -empezar_partida_nueva():void&#xa;  -procesar_opcion_construir(Jugador *jugador):void&#xa;  -procesar_opcion_demoler(Jugador *jugador):void&#xa;  -procesar_opcion_atacar(Jugador *jugador,Jugador* rival):void&#xa;  -procesar_opcion_reparar(Jugador *jugador):void&#xa;  -procesar_opcion_comprar_bombas(Jugador *jugador):void&#xa;  -procesar_opcion_recolectar(Jugador *jugador):void&#xa;  -procesar_opcion_consultar_coordenada():void&#xa;  -asignar_materiales(int cantidad_madera, int cantidad_piedra, int cantidad_metal, int cantidad_andycoins):void&#xa;  -lluvia_de_materiales():void&#xa;- numero_aleatorio(int limite_inferior, int limite_superior):int&#xa;-casilla_disponible(int fil, int col):bool&#xa;  -asignar_coordenada(int* fil, int* col):void&#xa;  -colocar_material(int cantidad_material, char tipo):void&#xa;- casillas_disponibles(int total_materiales):int&#xa;  -asignar_objetivos(Vector &lt;Objetivo&gt; *objetivos_jugador,Jugador *jugador):void&#xa;  -mostrar_progresos_objetivos(Jugador *jugador,Vector &lt;Objetivo&gt; *vector_objetivos):void" style="text;strokeColor=none;fillColor=none;align=left;verticalAlign=top;spacingLeft=4;spacingRight=4;overflow=hidden;rotatable=0;points=[[0,0.5],[1,0.5]];portConstraint=eastwest;rounded=0;" parent="B9S7GfdaR4YtxmO8wC_m-18" vertex="1">
          <mxGeometry y="180" width="700" height="520" as="geometry" />
        </mxCell>
        <mxCell id="B9S7GfdaR4YtxmO8wC_m-24" style="edgeStyle=none;rounded=0;orthogonalLoop=1;jettySize=auto;html=1;endArrow=classic;endFill=1;exitX=0.219;exitY=1.017;exitDx=0;exitDy=0;exitPerimeter=0;entryX=0.5;entryY=0;entryDx=0;entryDy=0;" parent="1" source="B9S7GfdaR4YtxmO8wC_m-21" edge="1" target="B9S7GfdaR4YtxmO8wC_m-5">
          <mxGeometry relative="1" as="geometry">
            <mxPoint x="-599" y="-1500" as="targetPoint" />
          </mxGeometry>
        </mxCell>
        <mxCell id="XbEgYG8BNr4pHZJZ6MSk-101" style="edgeStyle=orthogonalEdgeStyle;rounded=0;jumpSize=3;orthogonalLoop=1;jettySize=auto;html=1;exitX=0.5;exitY=0;exitDx=0;exitDy=0;entryX=0;entryY=0.5;entryDx=0;entryDy=0;labelBackgroundColor=default;fontFamily=Helvetica;fontSize=11;fontColor=default;endArrow=diamondThin;endFill=1;strokeColor=default;strokeWidth=1;" parent="1" source="B9S7GfdaR4YtxmO8wC_m-25" target="B9S7GfdaR4YtxmO8wC_m-65" edge="1">
          <mxGeometry relative="1" as="geometry" />
        </mxCell>
        <mxCell id="B9S7GfdaR4YtxmO8wC_m-25" value="Casillero" style="swimlane;fontStyle=3;align=center;verticalAlign=top;childLayout=stackLayout;horizontal=1;startSize=26;horizontalStack=0;resizeParent=1;resizeParentMax=0;resizeLast=0;collapsible=1;marginBottom=0;rounded=0;dashed=1;" parent="1" vertex="1">
          <mxGeometry x="-1920" y="-1774" width="310" height="240" as="geometry" />
        </mxCell>
        <mxCell id="B9S7GfdaR4YtxmO8wC_m-26" value="#ocupado:bool &#xa;    #tipo_casilla:char&#xa;    #ocupacion:int&#xa;    #vida:int" style="text;strokeColor=none;fillColor=none;align=left;verticalAlign=top;spacingLeft=4;spacingRight=4;overflow=hidden;rotatable=0;points=[[0,0.5],[1,0.5]];portConstraint=eastwest;rounded=0;" parent="B9S7GfdaR4YtxmO8wC_m-25" vertex="1">
          <mxGeometry y="26" width="310" height="64" as="geometry" />
        </mxCell>
        <mxCell id="B9S7GfdaR4YtxmO8wC_m-27" value="" style="line;strokeWidth=1;fillColor=none;align=left;verticalAlign=middle;spacingTop=-1;spacingLeft=3;spacingRight=3;rotatable=0;labelPosition=right;points=[];portConstraint=eastwest;rounded=0;dashed=1;" parent="B9S7GfdaR4YtxmO8wC_m-25" vertex="1">
          <mxGeometry y="90" width="310" height="8" as="geometry" />
        </mxCell>
        <mxCell id="B9S7GfdaR4YtxmO8wC_m-28" value="+Casillero(char tipo_casilla,int ocupado_por)&#xa;    +esta_ocupado():bool &#xa;    +mostrar() = 0:virtual void&#xa;    +dar_mensaje() = 0:virtual void&#xa;    +devolver_tipo():char&#xa;    +ocupado_por():int&#xa;    +devolver_vida():int&#xa;    +modificar_vida(int operacion):void&#xa;    ~Casillero():virtual " style="text;strokeColor=none;fillColor=none;align=left;verticalAlign=top;spacingLeft=4;spacingRight=4;overflow=hidden;rotatable=0;points=[[0,0.5],[1,0.5]];portConstraint=eastwest;rounded=0;" parent="B9S7GfdaR4YtxmO8wC_m-25" vertex="1">
          <mxGeometry y="98" width="310" height="142" as="geometry" />
        </mxCell>
        <mxCell id="B9S7GfdaR4YtxmO8wC_m-29" value="Funciones Auxiliares" style="swimlane;fontStyle=1;align=center;verticalAlign=top;childLayout=stackLayout;horizontal=1;startSize=26;horizontalStack=0;resizeParent=1;resizeParentMax=0;resizeLast=0;collapsible=1;marginBottom=0;rounded=0;" parent="1" vertex="1">
          <mxGeometry x="50" y="-2260" width="880" height="400" as="geometry" />
        </mxCell>
        <mxCell id="B9S7GfdaR4YtxmO8wC_m-31" value="" style="line;strokeWidth=1;fillColor=none;align=left;verticalAlign=middle;spacingTop=-1;spacingLeft=3;spacingRight=3;rotatable=0;labelPosition=right;points=[];portConstraint=eastwest;rounded=0;" parent="B9S7GfdaR4YtxmO8wC_m-29" vertex="1">
          <mxGeometry y="26" width="880" height="8" as="geometry" />
        </mxCell>
        <mxCell id="B9S7GfdaR4YtxmO8wC_m-32" value=" - hay_archivo(string nombre_archivo):bool&#xa;   - leer_hasta_delimitador(ifstream &amp; archivo,char delimitador):string &#xa;- devolver_fila_o_columna(ifstream &amp; archivo,int vector_fil_col[2]): void&#xa;   - imprimir_edificios(Nodo &lt;Edificios&gt;* nodo):void &#xa;   - calcular_espacio_delantero(int espacio, int  largo_palabra):int &#xa;   - que_material_es(string material,int *cantidad_a_dar):char&#xa;+Funciones_auxiliares_juego(/* args */):&#xa;    +imprimir_centrado(int espacio, string palabra):void &#xa;    +coordenada_es_valida(int *fil,int *col,Mapa *mapa):bool &#xa;    +pedir_coordenada(int *fila, int *columna):void &#xa;    +modificar_edificio(ABB &lt;Edificios&gt;* arbol_edificio):void &#xa;    +valido_accion(string respuesta):bool &#xa;    +confirmo_accion(string accion,string objeto):bool &#xa;    +imprimir_encabezado(Nodo &lt;Edificios&gt;* nodo):void &#xa;     +tiene_energia_suficiente(int coste_energia,int energia_jugador):bool &#xa;    +hay_coordenada_disponible(int *fil,int *col,Mapa *mapa):bool &#xa;    +buscar_edificio(string edificio_a_buscar,Vector &lt;Edificios_jugador&gt; *vector_edificios, bool (*condicion) (Edificios_jugador* edificio,string +edificio_a_buscar)):int &#xa;    +devolver_edificio_buscado_por_Vector(string nombre_edificio,Vector&lt;Edificios_jugador&gt; *vector_edificios,int *posicion):bool &#xa;    +devolver_material_buscado_por_Vector(string nombre_material,Vector&lt;Material&gt; *vector_materiales,int *posicion):bool &#xa;    +convertir_coordenada_string(int fila,int columna):string &#xa;    +imprimir_menu_partida_nueva():void &#xa;    +imprimir_menu():void &#xa;    +cargar_materiales(int *contador_archivos,Jugador *jugador_1,Jugador *jugador_2):void &#xa;    +cargar_materiales_en_0(Jugador *jugador_1,Jugador *jugador_2):void &#xa;    +~Funciones_auxiliares_juego():" style="text;strokeColor=none;fillColor=none;align=left;verticalAlign=top;spacingLeft=4;spacingRight=4;overflow=hidden;rotatable=0;points=[[0,0.5],[1,0.5]];portConstraint=eastwest;rounded=0;" parent="B9S7GfdaR4YtxmO8wC_m-29" vertex="1">
          <mxGeometry y="34" width="880" height="366" as="geometry" />
        </mxCell>
        <mxCell id="E-rghlNcItKewctkxyXF-5" style="edgeStyle=orthogonalEdgeStyle;rounded=0;orthogonalLoop=1;jettySize=auto;html=1;exitX=1;exitY=0.5;exitDx=0;exitDy=0;" parent="B9S7GfdaR4YtxmO8wC_m-29" source="B9S7GfdaR4YtxmO8wC_m-32" target="B9S7GfdaR4YtxmO8wC_m-32" edge="1">
          <mxGeometry relative="1" as="geometry" />
        </mxCell>
        <mxCell id="B9S7GfdaR4YtxmO8wC_m-37" value="Casillero Trransitable" style="swimlane;fontStyle=1;align=center;verticalAlign=top;childLayout=stackLayout;horizontal=1;startSize=26;horizontalStack=0;resizeParent=1;resizeParentMax=0;resizeLast=0;collapsible=1;marginBottom=0;rounded=0;" parent="1" vertex="1">
          <mxGeometry x="-1920" y="-1460" width="310" height="100" as="geometry" />
        </mxCell>
        <mxCell id="B9S7GfdaR4YtxmO8wC_m-39" value="" style="line;strokeWidth=1;fillColor=none;align=left;verticalAlign=middle;spacingTop=-1;spacingLeft=3;spacingRight=3;rotatable=0;labelPosition=right;points=[];portConstraint=eastwest;rounded=0;" parent="B9S7GfdaR4YtxmO8wC_m-37" vertex="1">
          <mxGeometry y="26" width="310" height="8" as="geometry" />
        </mxCell>
        <mxCell id="B9S7GfdaR4YtxmO8wC_m-40" value=" Casillero_transitable(char tipo_casilla,int ocupado_por)&#xa;    +cambiar_contenido( char tipo_nuevo):void&#xa;    +mostrar():void&#xa;    +dar_mensaje():void" style="text;strokeColor=none;fillColor=none;align=left;verticalAlign=top;spacingLeft=4;spacingRight=4;overflow=hidden;rotatable=0;points=[[0,0.5],[1,0.5]];portConstraint=eastwest;rounded=0;" parent="B9S7GfdaR4YtxmO8wC_m-37" vertex="1">
          <mxGeometry y="34" width="310" height="66" as="geometry" />
        </mxCell>
        <mxCell id="B9S7GfdaR4YtxmO8wC_m-41" value="Casillero Inaccesible" style="swimlane;fontStyle=1;align=center;verticalAlign=top;childLayout=stackLayout;horizontal=1;startSize=26;horizontalStack=0;resizeParent=1;resizeParentMax=0;resizeLast=0;collapsible=1;marginBottom=0;rounded=0;" parent="1" vertex="1">
          <mxGeometry x="-1550" y="-1450" width="310" height="90" as="geometry" />
        </mxCell>
        <mxCell id="B9S7GfdaR4YtxmO8wC_m-43" value="" style="line;strokeWidth=1;fillColor=none;align=left;verticalAlign=middle;spacingTop=-1;spacingLeft=3;spacingRight=3;rotatable=0;labelPosition=right;points=[];portConstraint=eastwest;rounded=0;" parent="B9S7GfdaR4YtxmO8wC_m-41" vertex="1">
          <mxGeometry y="26" width="310" height="8" as="geometry" />
        </mxCell>
        <mxCell id="B9S7GfdaR4YtxmO8wC_m-44" value=" Casillero_inaccesible(char tipo_casilla,int ocupado_por)&#xa;    +mostrar():void&#xa;    +dar_mensaje():void" style="text;strokeColor=none;fillColor=none;align=left;verticalAlign=top;spacingLeft=4;spacingRight=4;overflow=hidden;rotatable=0;points=[[0,0.5],[1,0.5]];portConstraint=eastwest;rounded=0;" parent="B9S7GfdaR4YtxmO8wC_m-41" vertex="1">
          <mxGeometry y="34" width="310" height="56" as="geometry" />
        </mxCell>
        <mxCell id="B9S7GfdaR4YtxmO8wC_m-53" value="Casillero Construible" style="swimlane;fontStyle=1;align=center;verticalAlign=top;childLayout=stackLayout;horizontal=1;startSize=26;horizontalStack=0;resizeParent=1;resizeParentMax=0;resizeLast=0;collapsible=1;marginBottom=0;rounded=0;" parent="1" vertex="1">
          <mxGeometry x="-2290" y="-1460" width="310" height="100" as="geometry" />
        </mxCell>
        <mxCell id="B9S7GfdaR4YtxmO8wC_m-55" value="" style="line;strokeWidth=1;fillColor=none;align=left;verticalAlign=middle;spacingTop=-1;spacingLeft=3;spacingRight=3;rotatable=0;labelPosition=right;points=[];portConstraint=eastwest;rounded=0;" parent="B9S7GfdaR4YtxmO8wC_m-53" vertex="1">
          <mxGeometry y="26" width="310" height="8" as="geometry" />
        </mxCell>
        <mxCell id="B9S7GfdaR4YtxmO8wC_m-56" value=" Casillero_construible (char tipo_casilla,int ocupado_por)&#xa;    +mostrar():void&#xa;    +dar_mensaje():void&#xa;    +devolver_nombre():void&#xa;&#xa;&#xa;&#xa;" style="text;strokeColor=none;fillColor=none;align=left;verticalAlign=top;spacingLeft=4;spacingRight=4;overflow=hidden;rotatable=0;points=[[0,0.5],[1,0.5]];portConstraint=eastwest;rounded=0;" parent="B9S7GfdaR4YtxmO8wC_m-53" vertex="1">
          <mxGeometry y="34" width="310" height="66" as="geometry" />
        </mxCell>
        <mxCell id="B9S7GfdaR4YtxmO8wC_m-62" value="Mapa" style="swimlane;fontStyle=1;align=center;verticalAlign=top;childLayout=stackLayout;horizontal=1;startSize=26;horizontalStack=0;resizeParent=1;resizeParentMax=0;resizeLast=0;collapsible=1;marginBottom=0;rounded=0;" parent="1" vertex="1">
          <mxGeometry x="-1980" y="-2230" width="430" height="240" as="geometry" />
        </mxCell>
        <mxCell id="B9S7GfdaR4YtxmO8wC_m-63" value="-filas:int &#xa; -columnas:int &#xa;-mapa:Casillero***&#xa;" style="text;strokeColor=none;fillColor=none;align=left;verticalAlign=top;spacingLeft=4;spacingRight=4;overflow=hidden;rotatable=0;points=[[0,0.5],[1,0.5]];portConstraint=eastwest;rounded=0;" parent="B9S7GfdaR4YtxmO8wC_m-62" vertex="1">
          <mxGeometry y="26" width="430" height="54" as="geometry" />
        </mxCell>
        <mxCell id="B9S7GfdaR4YtxmO8wC_m-64" value="" style="line;strokeWidth=1;fillColor=none;align=left;verticalAlign=middle;spacingTop=-1;spacingLeft=3;spacingRight=3;rotatable=0;labelPosition=right;points=[];portConstraint=eastwest;rounded=0;" parent="B9S7GfdaR4YtxmO8wC_m-62" vertex="1">
          <mxGeometry y="80" width="430" height="8" as="geometry" />
        </mxCell>
        <mxCell id="B9S7GfdaR4YtxmO8wC_m-65" value="+Mapa(int filas, int columnas):&#xa;+llenar_mapa(Casillero* casilla,int coordenadaf,int coordenadac):bool&#xa;+actualizar_mapa(Casillero* casilla,int coordenadaf,int coordenadac):void&#xa;+mostrar():void&#xa;+consultar_tipo(int fila, int columna):char &#xa;+devolver_filas():int &#xa;+devolver_columnas():int&#xa;+imprimir_camino():void&#xa;+devolver_casilla(int fil,int col):Casillero*&#xa;~Mapa():" style="text;strokeColor=none;fillColor=none;align=left;verticalAlign=top;spacingLeft=4;spacingRight=4;overflow=hidden;rotatable=0;points=[[0,0.5],[1,0.5]];portConstraint=eastwest;rounded=0;" parent="B9S7GfdaR4YtxmO8wC_m-62" vertex="1">
          <mxGeometry y="88" width="430" height="152" as="geometry" />
        </mxCell>
        <mxCell id="B9S7GfdaR4YtxmO8wC_m-94" style="edgeStyle=orthogonalEdgeStyle;rounded=0;orthogonalLoop=1;jettySize=auto;html=1;endArrow=classicThin;endFill=1;" parent="1" source="B9S7GfdaR4YtxmO8wC_m-21" target="B9S7GfdaR4YtxmO8wC_m-29" edge="1">
          <mxGeometry relative="1" as="geometry" />
        </mxCell>
        <mxCell id="B9S7GfdaR4YtxmO8wC_m-95" value="Objetivo" style="swimlane;fontStyle=1;align=center;verticalAlign=top;childLayout=stackLayout;horizontal=1;startSize=26;horizontalStack=0;resizeParent=1;resizeParentMax=0;resizeLast=0;collapsible=1;marginBottom=0;rounded=0;" parent="1" vertex="1">
          <mxGeometry x="-710" y="50" width="200" height="130" as="geometry" />
        </mxCell>
        <mxCell id="B9S7GfdaR4YtxmO8wC_m-96" value="-datos_jugador:Jugador *&#xa;-cumplio_objetivo:bool " style="text;strokeColor=none;fillColor=none;align=left;verticalAlign=top;spacingLeft=4;spacingRight=4;overflow=hidden;rotatable=0;points=[[0,0.5],[1,0.5]];portConstraint=eastwest;rounded=0;" parent="B9S7GfdaR4YtxmO8wC_m-95" vertex="1">
          <mxGeometry y="26" width="200" height="34" as="geometry" />
        </mxCell>
        <mxCell id="B9S7GfdaR4YtxmO8wC_m-97" value="" style="line;strokeWidth=1;fillColor=none;align=left;verticalAlign=middle;spacingTop=-1;spacingLeft=3;spacingRight=3;rotatable=0;labelPosition=right;points=[];portConstraint=eastwest;rounded=0;" parent="B9S7GfdaR4YtxmO8wC_m-95" vertex="1">
          <mxGeometry y="60" width="200" height="8" as="geometry" />
        </mxCell>
        <mxCell id="B9S7GfdaR4YtxmO8wC_m-98" value="Objetivo(Jugador *datos_jugador)&#xa;  ~Objetivo():virtual&#xa;  alcanzo_objetivo() = 0: virtual bool &#xa;  mostrar_progreso() = 0: virtual void" style="text;strokeColor=none;fillColor=none;align=left;verticalAlign=top;spacingLeft=4;spacingRight=4;overflow=hidden;rotatable=0;points=[[0,0.5],[1,0.5]];portConstraint=eastwest;rounded=0;" parent="B9S7GfdaR4YtxmO8wC_m-95" vertex="1">
          <mxGeometry y="68" width="200" height="62" as="geometry" />
        </mxCell>
        <mxCell id="B9S7GfdaR4YtxmO8wC_m-99" value="Mas alto que las nubes" style="swimlane;fontStyle=1;align=center;verticalAlign=top;childLayout=stackLayout;horizontal=1;startSize=26;horizontalStack=0;resizeParent=1;resizeParentMax=0;resizeLast=0;collapsible=1;marginBottom=0;rounded=0;" parent="1" vertex="1">
          <mxGeometry x="-1410" y="287" width="290" height="90" as="geometry" />
        </mxCell>
        <mxCell id="B9S7GfdaR4YtxmO8wC_m-101" value="" style="line;strokeWidth=1;fillColor=none;align=left;verticalAlign=middle;spacingTop=-1;spacingLeft=3;spacingRight=3;rotatable=0;labelPosition=right;points=[];portConstraint=eastwest;rounded=0;" parent="B9S7GfdaR4YtxmO8wC_m-99" vertex="1">
          <mxGeometry y="26" width="290" height="8" as="geometry" />
        </mxCell>
        <mxCell id="B9S7GfdaR4YtxmO8wC_m-102" value="+Mas_alto_que_las_nubes(Jugador* datos_jugador);&#xa;    +alcanzo_objetivo():bool&#xa;    +mostrar_progreso():void" style="text;strokeColor=none;fillColor=none;align=left;verticalAlign=top;spacingLeft=4;spacingRight=4;overflow=hidden;rotatable=0;points=[[0,0.5],[1,0.5]];portConstraint=eastwest;rounded=0;" parent="B9S7GfdaR4YtxmO8wC_m-99" vertex="1">
          <mxGeometry y="34" width="290" height="56" as="geometry" />
        </mxCell>
        <mxCell id="B9S7GfdaR4YtxmO8wC_m-103" value="Bombardero" style="swimlane;fontStyle=1;align=center;verticalAlign=top;childLayout=stackLayout;horizontal=1;startSize=26;horizontalStack=0;resizeParent=1;resizeParentMax=0;resizeLast=0;collapsible=1;marginBottom=0;rounded=0;" parent="1" vertex="1">
          <mxGeometry x="-584" y="290" width="220" height="84" as="geometry" />
        </mxCell>
        <mxCell id="B9S7GfdaR4YtxmO8wC_m-105" value="" style="line;strokeWidth=1;fillColor=none;align=left;verticalAlign=middle;spacingTop=-1;spacingLeft=3;spacingRight=3;rotatable=0;labelPosition=right;points=[];portConstraint=eastwest;rounded=0;" parent="B9S7GfdaR4YtxmO8wC_m-103" vertex="1">
          <mxGeometry y="26" width="220" height="8" as="geometry" />
        </mxCell>
        <mxCell id="B9S7GfdaR4YtxmO8wC_m-106" value="+Bombardero(Jugador *datos_jugador)&#xa;    +alcanzo_objetivo():bool &#xa;    +mostrar_progreso():void  &#xa;" style="text;strokeColor=none;fillColor=none;align=left;verticalAlign=top;spacingLeft=4;spacingRight=4;overflow=hidden;rotatable=0;points=[[0,0.5],[1,0.5]];portConstraint=eastwest;rounded=0;" parent="B9S7GfdaR4YtxmO8wC_m-103" vertex="1">
          <mxGeometry y="34" width="220" height="50" as="geometry" />
        </mxCell>
        <mxCell id="B9S7GfdaR4YtxmO8wC_m-107" value="Edad de piedra" style="swimlane;fontStyle=1;align=center;verticalAlign=top;childLayout=stackLayout;horizontal=1;startSize=26;horizontalStack=0;resizeParent=1;resizeParentMax=0;resizeLast=0;collapsible=1;marginBottom=0;rounded=0;" parent="1" vertex="1">
          <mxGeometry x="-820" y="300" width="220" height="90" as="geometry" />
        </mxCell>
        <mxCell id="B9S7GfdaR4YtxmO8wC_m-109" value="" style="line;strokeWidth=1;fillColor=none;align=left;verticalAlign=middle;spacingTop=-1;spacingLeft=3;spacingRight=3;rotatable=0;labelPosition=right;points=[];portConstraint=eastwest;rounded=0;" parent="B9S7GfdaR4YtxmO8wC_m-107" vertex="1">
          <mxGeometry y="26" width="220" height="8" as="geometry" />
        </mxCell>
        <mxCell id="B9S7GfdaR4YtxmO8wC_m-110" value="+Edad_de_piedra(Jugador *datos_jugador)&#xa;    +alcanzo_objetivo():bool &#xa;    +mostrar_progreso():void  &#xa;" style="text;strokeColor=none;fillColor=none;align=left;verticalAlign=top;spacingLeft=4;spacingRight=4;overflow=hidden;rotatable=0;points=[[0,0.5],[1,0.5]];portConstraint=eastwest;rounded=0;" parent="B9S7GfdaR4YtxmO8wC_m-107" vertex="1">
          <mxGeometry y="34" width="220" height="56" as="geometry" />
        </mxCell>
        <mxCell id="B9S7GfdaR4YtxmO8wC_m-111" value="Comprar Andypolis" style="swimlane;fontStyle=1;align=center;verticalAlign=top;childLayout=stackLayout;horizontal=1;startSize=26;horizontalStack=0;resizeParent=1;resizeParentMax=0;resizeLast=0;collapsible=1;marginBottom=0;rounded=0;" parent="1" vertex="1">
          <mxGeometry x="-1100" y="290" width="250" height="90" as="geometry" />
        </mxCell>
        <mxCell id="B9S7GfdaR4YtxmO8wC_m-113" value="" style="line;strokeWidth=1;fillColor=none;align=left;verticalAlign=middle;spacingTop=-1;spacingLeft=3;spacingRight=3;rotatable=0;labelPosition=right;points=[];portConstraint=eastwest;rounded=0;" parent="B9S7GfdaR4YtxmO8wC_m-111" vertex="1">
          <mxGeometry y="26" width="250" height="8" as="geometry" />
        </mxCell>
        <mxCell id="B9S7GfdaR4YtxmO8wC_m-114" value="  Comprar_andypolis(Jugador* datos_jugador);&#xa;    +alcanzo_objetivo():bool&#xa;    +mostrar_progreso():void" style="text;strokeColor=none;fillColor=none;align=left;verticalAlign=top;spacingLeft=4;spacingRight=4;overflow=hidden;rotatable=0;points=[[0,0.5],[1,0.5]];portConstraint=eastwest;rounded=0;" parent="B9S7GfdaR4YtxmO8wC_m-111" vertex="1">
          <mxGeometry y="34" width="250" height="56" as="geometry" />
        </mxCell>
        <mxCell id="B9S7GfdaR4YtxmO8wC_m-115" value="Energético" style="swimlane;fontStyle=1;align=center;verticalAlign=top;childLayout=stackLayout;horizontal=1;startSize=26;horizontalStack=0;resizeParent=1;resizeParentMax=0;resizeLast=0;collapsible=1;marginBottom=0;rounded=0;" parent="1" vertex="1">
          <mxGeometry x="-340" y="288" width="240" height="90" as="geometry" />
        </mxCell>
        <mxCell id="B9S7GfdaR4YtxmO8wC_m-117" value="" style="line;strokeWidth=1;fillColor=none;align=left;verticalAlign=middle;spacingTop=-1;spacingLeft=3;spacingRight=3;rotatable=0;labelPosition=right;points=[];portConstraint=eastwest;rounded=0;" parent="B9S7GfdaR4YtxmO8wC_m-115" vertex="1">
          <mxGeometry y="26" width="240" height="8" as="geometry" />
        </mxCell>
        <mxCell id="B9S7GfdaR4YtxmO8wC_m-118" value="+dad_de_piedra(Jugador *datos_jugador)&#xa;    +alcanzo_objetivo():bool &#xa;    +mostrar_progreso():void  &#xa;" style="text;strokeColor=none;fillColor=none;align=left;verticalAlign=top;spacingLeft=4;spacingRight=4;overflow=hidden;rotatable=0;points=[[0,0.5],[1,0.5]];portConstraint=eastwest;rounded=0;" parent="B9S7GfdaR4YtxmO8wC_m-115" vertex="1">
          <mxGeometry y="34" width="240" height="56" as="geometry" />
        </mxCell>
        <mxCell id="B9S7GfdaR4YtxmO8wC_m-120" value="Minero" style="swimlane;fontStyle=1;align=center;verticalAlign=top;childLayout=stackLayout;horizontal=1;startSize=26;horizontalStack=0;resizeParent=1;resizeParentMax=0;resizeLast=0;collapsible=1;marginBottom=0;rounded=0;" parent="1" vertex="1">
          <mxGeometry x="-1200" y="432" width="190" height="118" as="geometry" />
        </mxCell>
        <mxCell id="B9S7GfdaR4YtxmO8wC_m-121" value="-hay_mina_oro:bool&#xa;    -hay_mina:bool" style="text;strokeColor=none;fillColor=none;align=left;verticalAlign=top;spacingLeft=4;spacingRight=4;overflow=hidden;rotatable=0;points=[[0,0.5],[1,0.5]];portConstraint=eastwest;rounded=0;" parent="B9S7GfdaR4YtxmO8wC_m-120" vertex="1">
          <mxGeometry y="26" width="190" height="34" as="geometry" />
        </mxCell>
        <mxCell id="B9S7GfdaR4YtxmO8wC_m-122" value="" style="line;strokeWidth=1;fillColor=none;align=left;verticalAlign=middle;spacingTop=-1;spacingLeft=3;spacingRight=3;rotatable=0;labelPosition=right;points=[];portConstraint=eastwest;rounded=0;" parent="B9S7GfdaR4YtxmO8wC_m-120" vertex="1">
          <mxGeometry y="60" width="190" height="8" as="geometry" />
        </mxCell>
        <mxCell id="B9S7GfdaR4YtxmO8wC_m-123" value="+Minero(Jugador *datos_jugador);&#xa;    +alcanzo_objetivo():bool&#xa;    +mostrar_progreso():void" style="text;strokeColor=none;fillColor=none;align=left;verticalAlign=top;spacingLeft=4;spacingRight=4;overflow=hidden;rotatable=0;points=[[0,0.5],[1,0.5]];portConstraint=eastwest;rounded=0;" parent="B9S7GfdaR4YtxmO8wC_m-120" vertex="1">
          <mxGeometry y="68" width="190" height="50" as="geometry" />
        </mxCell>
        <mxCell id="B9S7GfdaR4YtxmO8wC_m-124" value="Armado" style="swimlane;fontStyle=1;align=center;verticalAlign=top;childLayout=stackLayout;horizontal=1;startSize=26;horizontalStack=0;resizeParent=1;resizeParentMax=0;resizeLast=0;collapsible=1;marginBottom=0;rounded=0;" parent="1" vertex="1">
          <mxGeometry x="-450" y="432" width="200" height="90" as="geometry" />
        </mxCell>
        <mxCell id="B9S7GfdaR4YtxmO8wC_m-126" value="" style="line;strokeWidth=1;fillColor=none;align=left;verticalAlign=middle;spacingTop=-1;spacingLeft=3;spacingRight=3;rotatable=0;labelPosition=right;points=[];portConstraint=eastwest;rounded=0;" parent="B9S7GfdaR4YtxmO8wC_m-124" vertex="1">
          <mxGeometry y="26" width="200" height="8" as="geometry" />
        </mxCell>
        <mxCell id="B9S7GfdaR4YtxmO8wC_m-127" value="+Armado(Jugador *datos_jugador)&#xa;    +alcanzo_objetivo():bool &#xa;    +mostrar_progreso():void  &#xa;" style="text;strokeColor=none;fillColor=none;align=left;verticalAlign=top;spacingLeft=4;spacingRight=4;overflow=hidden;rotatable=0;points=[[0,0.5],[1,0.5]];portConstraint=eastwest;rounded=0;" parent="B9S7GfdaR4YtxmO8wC_m-124" vertex="1">
          <mxGeometry y="34" width="200" height="56" as="geometry" />
        </mxCell>
        <mxCell id="B9S7GfdaR4YtxmO8wC_m-128" value="Constructor" style="swimlane;fontStyle=1;align=center;verticalAlign=top;childLayout=stackLayout;horizontal=1;startSize=26;horizontalStack=0;resizeParent=1;resizeParentMax=0;resizeLast=0;collapsible=1;marginBottom=0;rounded=0;" parent="1" vertex="1">
          <mxGeometry x="-730" y="432" width="250" height="110" as="geometry" />
        </mxCell>
        <mxCell id="B9S7GfdaR4YtxmO8wC_m-129" value="-edificios_buscados [MAX_EDIFICIOS]:string " style="text;strokeColor=none;fillColor=none;align=left;verticalAlign=top;spacingLeft=4;spacingRight=4;overflow=hidden;rotatable=0;points=[[0,0.5],[1,0.5]];portConstraint=eastwest;rounded=0;" parent="B9S7GfdaR4YtxmO8wC_m-128" vertex="1">
          <mxGeometry y="26" width="250" height="26" as="geometry" />
        </mxCell>
        <mxCell id="B9S7GfdaR4YtxmO8wC_m-130" value="" style="line;strokeWidth=1;fillColor=none;align=left;verticalAlign=middle;spacingTop=-1;spacingLeft=3;spacingRight=3;rotatable=0;labelPosition=right;points=[];portConstraint=eastwest;rounded=0;" parent="B9S7GfdaR4YtxmO8wC_m-128" vertex="1">
          <mxGeometry y="52" width="250" height="8" as="geometry" />
        </mxCell>
        <mxCell id="B9S7GfdaR4YtxmO8wC_m-131" value="  Constructor(Jugador* datos_jugador);&#xa;    +alcanzo_objetivo():bool&#xa;    +mostrar_progreso():void" style="text;strokeColor=none;fillColor=none;align=left;verticalAlign=top;spacingLeft=4;spacingRight=4;overflow=hidden;rotatable=0;points=[[0,0.5],[1,0.5]];portConstraint=eastwest;rounded=0;" parent="B9S7GfdaR4YtxmO8wC_m-128" vertex="1">
          <mxGeometry y="60" width="250" height="50" as="geometry" />
        </mxCell>
        <mxCell id="B9S7GfdaR4YtxmO8wC_m-132" value="Cansado" style="swimlane;fontStyle=1;align=center;verticalAlign=top;childLayout=stackLayout;horizontal=1;startSize=26;horizontalStack=0;resizeParent=1;resizeParentMax=0;resizeLast=0;collapsible=1;marginBottom=0;rounded=0;" parent="1" vertex="1">
          <mxGeometry x="-940" y="432" width="190" height="90" as="geometry" />
        </mxCell>
        <mxCell id="B9S7GfdaR4YtxmO8wC_m-134" value="" style="line;strokeWidth=1;fillColor=none;align=left;verticalAlign=middle;spacingTop=-1;spacingLeft=3;spacingRight=3;rotatable=0;labelPosition=right;points=[];portConstraint=eastwest;rounded=0;" parent="B9S7GfdaR4YtxmO8wC_m-132" vertex="1">
          <mxGeometry y="26" width="190" height="8" as="geometry" />
        </mxCell>
        <mxCell id="B9S7GfdaR4YtxmO8wC_m-135" value="  Cansado(Jugador* datos_jugador);&#xa;    +alcanzo_objetivo():bool&#xa;    +mostrar_progreso():void" style="text;strokeColor=none;fillColor=none;align=left;verticalAlign=top;spacingLeft=4;spacingRight=4;overflow=hidden;rotatable=0;points=[[0,0.5],[1,0.5]];portConstraint=eastwest;rounded=0;" parent="B9S7GfdaR4YtxmO8wC_m-132" vertex="1">
          <mxGeometry y="34" width="190" height="56" as="geometry" />
        </mxCell>
        <mxCell id="B9S7GfdaR4YtxmO8wC_m-136" value="Extremista" style="swimlane;fontStyle=1;align=center;verticalAlign=top;childLayout=stackLayout;horizontal=1;startSize=26;horizontalStack=0;resizeParent=1;resizeParentMax=0;resizeLast=0;collapsible=1;marginBottom=0;rounded=0;" parent="1" vertex="1">
          <mxGeometry x="-200" y="432" width="210" height="84" as="geometry" />
        </mxCell>
        <mxCell id="B9S7GfdaR4YtxmO8wC_m-138" value="" style="line;strokeWidth=1;fillColor=none;align=left;verticalAlign=middle;spacingTop=-1;spacingLeft=3;spacingRight=3;rotatable=0;labelPosition=right;points=[];portConstraint=eastwest;rounded=0;" parent="B9S7GfdaR4YtxmO8wC_m-136" vertex="1">
          <mxGeometry y="26" width="210" height="8" as="geometry" />
        </mxCell>
        <mxCell id="B9S7GfdaR4YtxmO8wC_m-139" value="+Extremista(Jugador *datos_jugador)&#xa;    +alcanzo_objetivo():bool &#xa;    +mostrar_progreso():void  &#xa;" style="text;strokeColor=none;fillColor=none;align=left;verticalAlign=top;spacingLeft=4;spacingRight=4;overflow=hidden;rotatable=0;points=[[0,0.5],[1,0.5]];portConstraint=eastwest;rounded=0;" parent="B9S7GfdaR4YtxmO8wC_m-136" vertex="1">
          <mxGeometry y="34" width="210" height="50" as="geometry" />
        </mxCell>
        <mxCell id="B9S7GfdaR4YtxmO8wC_m-141" value="Letrado" style="swimlane;fontStyle=1;align=center;verticalAlign=top;childLayout=stackLayout;horizontal=1;startSize=26;horizontalStack=0;resizeParent=1;resizeParentMax=0;resizeLast=0;collapsible=1;marginBottom=0;rounded=0;" parent="1" vertex="1">
          <mxGeometry x="-60" y="289" width="160" height="120" as="geometry" />
        </mxCell>
        <mxCell id="B9S7GfdaR4YtxmO8wC_m-142" value="-escuelas_construidas:int&#xa;-max_escuelas:int" style="text;strokeColor=none;fillColor=none;align=left;verticalAlign=top;spacingLeft=4;spacingRight=4;overflow=hidden;rotatable=0;points=[[0,0.5],[1,0.5]];portConstraint=eastwest;rounded=0;" parent="B9S7GfdaR4YtxmO8wC_m-141" vertex="1">
          <mxGeometry y="26" width="160" height="34" as="geometry" />
        </mxCell>
        <mxCell id="B9S7GfdaR4YtxmO8wC_m-143" value="" style="line;strokeWidth=1;fillColor=none;align=left;verticalAlign=middle;spacingTop=-1;spacingLeft=3;spacingRight=3;rotatable=0;labelPosition=right;points=[];portConstraint=eastwest;rounded=0;" parent="B9S7GfdaR4YtxmO8wC_m-141" vertex="1">
          <mxGeometry y="60" width="160" height="8" as="geometry" />
        </mxCell>
        <mxCell id="B9S7GfdaR4YtxmO8wC_m-144" value="+Letrado(Jugador *datos_jugador)&#xa;    +alcanzo_objetivo():bool &#xa;    +mostrar_progreso():void  &#xa;" style="text;strokeColor=none;fillColor=none;align=left;verticalAlign=top;spacingLeft=4;spacingRight=4;overflow=hidden;rotatable=0;points=[[0,0.5],[1,0.5]];portConstraint=eastwest;rounded=0;" parent="B9S7GfdaR4YtxmO8wC_m-141" vertex="1">
          <mxGeometry y="68" width="160" height="52" as="geometry" />
        </mxCell>
        <mxCell id="B9S7GfdaR4YtxmO8wC_m-156" value="" style="endArrow=none;html=1;rounded=0;curved=1;" parent="1" edge="1">
          <mxGeometry width="50" height="50" relative="1" as="geometry">
            <mxPoint x="-1260" y="220" as="sourcePoint" />
            <mxPoint x="20" y="230" as="targetPoint" />
          </mxGeometry>
        </mxCell>
        <mxCell id="B9S7GfdaR4YtxmO8wC_m-157" value="" style="endArrow=none;html=1;rounded=0;curved=1;" parent="1" source="B9S7GfdaR4YtxmO8wC_m-107" edge="1">
          <mxGeometry width="50" height="50" relative="1" as="geometry">
            <mxPoint x="-790" y="240" as="sourcePoint" />
            <mxPoint x="-710" y="220" as="targetPoint" />
          </mxGeometry>
        </mxCell>
        <mxCell id="B9S7GfdaR4YtxmO8wC_m-159" value="" style="endArrow=none;html=1;rounded=0;curved=1;exitX=0.515;exitY=-0.002;exitDx=0;exitDy=0;exitPerimeter=0;" parent="1" source="B9S7GfdaR4YtxmO8wC_m-99" edge="1">
          <mxGeometry width="50" height="50" relative="1" as="geometry">
            <mxPoint x="-1010" y="400" as="sourcePoint" />
            <mxPoint x="-1261" y="220" as="targetPoint" />
          </mxGeometry>
        </mxCell>
        <mxCell id="B9S7GfdaR4YtxmO8wC_m-161" value="" style="endArrow=none;html=1;rounded=0;exitX=0.471;exitY=-0.003;exitDx=0;exitDy=0;exitPerimeter=0;edgeStyle=orthogonalEdgeStyle;" parent="1" source="B9S7GfdaR4YtxmO8wC_m-120" edge="1">
          <mxGeometry width="50" height="50" relative="1" as="geometry">
            <mxPoint x="-970" y="400" as="sourcePoint" />
            <mxPoint x="-1110" y="220" as="targetPoint" />
            <Array as="points">
              <mxPoint x="-1110" y="408" />
              <mxPoint x="-1110" y="408" />
            </Array>
          </mxGeometry>
        </mxCell>
        <mxCell id="B9S7GfdaR4YtxmO8wC_m-162" value="" style="endArrow=none;html=1;rounded=0;exitX=0.5;exitY=0;exitDx=0;exitDy=0;edgeStyle=orthogonalEdgeStyle;" parent="1" source="B9S7GfdaR4YtxmO8wC_m-111" edge="1">
          <mxGeometry width="50" height="50" relative="1" as="geometry">
            <mxPoint x="-810" y="400" as="sourcePoint" />
            <mxPoint x="-975" y="220" as="targetPoint" />
            <Array as="points">
              <mxPoint x="-975" y="220" />
            </Array>
          </mxGeometry>
        </mxCell>
        <mxCell id="B9S7GfdaR4YtxmO8wC_m-166" value="" style="endArrow=none;html=1;rounded=0;entryX=0.5;entryY=0;entryDx=0;entryDy=0;edgeStyle=orthogonalEdgeStyle;" parent="1" target="B9S7GfdaR4YtxmO8wC_m-124" edge="1">
          <mxGeometry width="50" height="50" relative="1" as="geometry">
            <mxPoint x="-350" y="230" as="sourcePoint" />
            <mxPoint x="-500" y="-70" as="targetPoint" />
            <Array as="points">
              <mxPoint x="-350" y="230" />
            </Array>
          </mxGeometry>
        </mxCell>
        <mxCell id="B9S7GfdaR4YtxmO8wC_m-167" value="" style="endArrow=none;html=1;rounded=0;curved=1;entryX=0.5;entryY=0;entryDx=0;entryDy=0;" parent="1" target="B9S7GfdaR4YtxmO8wC_m-103" edge="1">
          <mxGeometry width="50" height="50" relative="1" as="geometry">
            <mxPoint x="-474" y="220" as="sourcePoint" />
            <mxPoint x="-500" y="-70" as="targetPoint" />
          </mxGeometry>
        </mxCell>
        <mxCell id="B9S7GfdaR4YtxmO8wC_m-168" value="" style="endArrow=none;html=1;rounded=0;curved=1;exitX=0.527;exitY=-0.004;exitDx=0;exitDy=0;exitPerimeter=0;" parent="1" source="B9S7GfdaR4YtxmO8wC_m-132" edge="1">
          <mxGeometry width="50" height="50" relative="1" as="geometry">
            <mxPoint x="-680" y="490" as="sourcePoint" />
            <mxPoint x="-840" y="220" as="targetPoint" />
          </mxGeometry>
        </mxCell>
        <mxCell id="B9S7GfdaR4YtxmO8wC_m-169" value="" style="endArrow=none;html=1;rounded=0;exitX=0.5;exitY=0;exitDx=0;exitDy=0;edgeStyle=orthogonalEdgeStyle;" parent="1" source="B9S7GfdaR4YtxmO8wC_m-128" edge="1">
          <mxGeometry width="50" height="50" relative="1" as="geometry">
            <mxPoint x="-440" y="490" as="sourcePoint" />
            <mxPoint x="-610" y="200" as="targetPoint" />
            <Array as="points">
              <mxPoint x="-590" y="412" />
              <mxPoint x="-590" y="250" />
              <mxPoint x="-610" y="250" />
            </Array>
          </mxGeometry>
        </mxCell>
        <mxCell id="B9S7GfdaR4YtxmO8wC_m-170" value="" style="endArrow=none;html=1;rounded=0;curved=1;entryX=0.5;entryY=0;entryDx=0;entryDy=0;" parent="1" target="B9S7GfdaR4YtxmO8wC_m-115" edge="1">
          <mxGeometry width="50" height="50" relative="1" as="geometry">
            <mxPoint x="-220" y="230" as="sourcePoint" />
            <mxPoint x="-390" y="230" as="targetPoint" />
          </mxGeometry>
        </mxCell>
        <mxCell id="B9S7GfdaR4YtxmO8wC_m-172" value="" style="endArrow=none;html=1;rounded=0;curved=1;entryX=0.5;entryY=0;entryDx=0;entryDy=0;" parent="1" target="B9S7GfdaR4YtxmO8wC_m-141" edge="1">
          <mxGeometry width="50" height="50" relative="1" as="geometry">
            <mxPoint x="20" y="230" as="sourcePoint" />
            <mxPoint x="-390" y="230" as="targetPoint" />
          </mxGeometry>
        </mxCell>
        <mxCell id="5QosaufAFJHbeHt7IuYo-15" value="" style="endArrow=none;html=1;rounded=0;" parent="1" edge="1">
          <mxGeometry width="50" height="50" relative="1" as="geometry">
            <mxPoint x="-2140" y="-1500" as="sourcePoint" />
            <mxPoint x="-1400" y="-1500" as="targetPoint" />
            <Array as="points">
              <mxPoint x="-1760" y="-1500" />
            </Array>
          </mxGeometry>
        </mxCell>
        <mxCell id="5QosaufAFJHbeHt7IuYo-16" value="" style="endArrow=none;html=1;rounded=0;entryX=0.485;entryY=-0.003;entryDx=0;entryDy=0;entryPerimeter=0;" parent="1" target="B9S7GfdaR4YtxmO8wC_m-53" edge="1">
          <mxGeometry width="50" height="50" relative="1" as="geometry">
            <mxPoint x="-2140" y="-1500" as="sourcePoint" />
            <mxPoint x="-1820" y="-1550" as="targetPoint" />
          </mxGeometry>
        </mxCell>
        <mxCell id="5QosaufAFJHbeHt7IuYo-17" value="" style="endArrow=none;html=1;rounded=0;" parent="1" edge="1">
          <mxGeometry width="50" height="50" relative="1" as="geometry">
            <mxPoint x="-1780" y="-1460" as="sourcePoint" />
            <mxPoint x="-1780" y="-1500" as="targetPoint" />
          </mxGeometry>
        </mxCell>
        <mxCell id="5QosaufAFJHbeHt7IuYo-18" value="" style="endArrow=none;html=1;rounded=0;exitX=0.484;exitY=-0.003;exitDx=0;exitDy=0;exitPerimeter=0;" parent="1" source="B9S7GfdaR4YtxmO8wC_m-41" edge="1">
          <mxGeometry width="50" height="50" relative="1" as="geometry">
            <mxPoint x="-1520" y="-1460" as="sourcePoint" />
            <mxPoint x="-1400" y="-1500" as="targetPoint" />
          </mxGeometry>
        </mxCell>
        <mxCell id="5QosaufAFJHbeHt7IuYo-19" value="" style="endArrow=block;html=1;rounded=0;endFill=0;entryX=0.45;entryY=0.998;entryDx=0;entryDy=0;entryPerimeter=0;" parent="1" target="B9S7GfdaR4YtxmO8wC_m-28" edge="1">
          <mxGeometry width="50" height="50" relative="1" as="geometry">
            <mxPoint x="-1780" y="-1500" as="sourcePoint" />
            <mxPoint x="-1780" y="-1530" as="targetPoint" />
          </mxGeometry>
        </mxCell>
        <mxCell id="XbEgYG8BNr4pHZJZ6MSk-1" value="Vector" style="swimlane;fontStyle=1;align=center;verticalAlign=top;childLayout=stackLayout;horizontal=1;startSize=26;horizontalStack=0;resizeParent=1;resizeParentMax=0;resizeLast=0;collapsible=1;marginBottom=0;" parent="1" vertex="1">
          <mxGeometry x="480" y="-1610" width="630" height="220" as="geometry" />
        </mxCell>
        <mxCell id="XbEgYG8BNr4pHZJZ6MSk-2" value="-largo:int &#xa;-elementos:Tipo**(template) " style="text;strokeColor=none;fillColor=none;align=left;verticalAlign=top;spacingLeft=4;spacingRight=4;overflow=hidden;rotatable=0;points=[[0,0.5],[1,0.5]];portConstraint=eastwest;" parent="XbEgYG8BNr4pHZJZ6MSk-1" vertex="1">
          <mxGeometry y="26" width="630" height="34" as="geometry" />
        </mxCell>
        <mxCell id="XbEgYG8BNr4pHZJZ6MSk-3" value="" style="line;strokeWidth=1;fillColor=none;align=left;verticalAlign=middle;spacingTop=-1;spacingLeft=3;spacingRight=3;rotatable=0;labelPosition=right;points=[];portConstraint=eastwest;" parent="XbEgYG8BNr4pHZJZ6MSk-1" vertex="1">
          <mxGeometry y="60" width="630" height="8" as="geometry" />
        </mxCell>
        <mxCell id="XbEgYG8BNr4pHZJZ6MSk-4" value=" -redimensionar(int operacion):void&#xa;    -copiar(Tipo** vector, int desde, int hasta):void&#xa; +Vector()&#xa;+Vector_destructor();void&#xa;    +tamanio():int&#xa;    +devolver_info(int pos):Tipo*&#xa;    +eliminar_info(int pos);void&#xa;    +hay_objeto(string nombre_a_buscar, int *posicion,bool (*es_el_buscado)(Tipo *dato,string nombre_a_buscar)):bool&#xa;    +anadir_elemento(Tipo* elemento);void&#xa;    +restar_tamanio();void" style="text;strokeColor=none;fillColor=none;align=left;verticalAlign=top;spacingLeft=4;spacingRight=4;overflow=hidden;rotatable=0;points=[[0,0.5],[1,0.5]];portConstraint=eastwest;" parent="XbEgYG8BNr4pHZJZ6MSk-1" vertex="1">
          <mxGeometry y="68" width="630" height="152" as="geometry" />
        </mxCell>
        <mxCell id="XbEgYG8BNr4pHZJZ6MSk-5" value="Diccionario" style="swimlane;fontStyle=1;align=center;verticalAlign=top;childLayout=stackLayout;horizontal=1;startSize=26;horizontalStack=0;resizeParent=1;resizeParentMax=0;resizeLast=0;collapsible=1;marginBottom=0;" parent="1" vertex="1">
          <mxGeometry x="290" y="-1179.67" width="460" height="250" as="geometry" />
        </mxCell>
        <mxCell id="XbEgYG8BNr4pHZJZ6MSk-6" value="Nodo&lt;Tipo&gt;* raiz" style="text;strokeColor=none;fillColor=none;align=left;verticalAlign=top;spacingLeft=4;spacingRight=4;overflow=hidden;rotatable=0;points=[[0,0.5],[1,0.5]];portConstraint=eastwest;dashed=1;" parent="XbEgYG8BNr4pHZJZ6MSk-5" vertex="1">
          <mxGeometry y="26" width="460" height="26" as="geometry" />
        </mxCell>
        <mxCell id="XbEgYG8BNr4pHZJZ6MSk-7" value="" style="line;strokeWidth=1;fillColor=none;align=left;verticalAlign=middle;spacingTop=-1;spacingLeft=3;spacingRight=3;rotatable=0;labelPosition=right;points=[];portConstraint=eastwest;" parent="XbEgYG8BNr4pHZJZ6MSk-5" vertex="1">
          <mxGeometry y="52" width="460" height="8" as="geometry" />
        </mxCell>
        <mxCell id="XbEgYG8BNr4pHZJZ6MSk-8" value="-insertar_en_diccionario(Nodo&lt;Tipo&gt;* nodo, Tipo *dato, string clave):  Nodo&lt;Tipo&gt;* &#xa;    -imprimir_en_orden(Nodo&lt;Tipo&gt; * nodo):void&#xa;    -borrar_todo(Nodo&lt;Tipo&gt;* nodo):void&#xa;  -_devolver_info(string clave,Nodo&lt;Tipo&gt;* nodo):  Nodo&lt;Tipo&gt;* &#xa;    -borrar_todo():void&#xa;    -cant_claves:int&#xa;+buscar(Nodo&lt;Tipo&gt;* nodo,char caracter,int (*cmp)(Tipo *dato,char caracter)): Tipo* &#xa;    +Diccionario();&#xa;    +insertar(Tipo *dato, string clave):void&#xa;  +obtener_raiz():  Nodo&lt;Tipo&gt;* &#xa;   +devolver_info(string clave): Tipo* &#xa;    ~Diccionario&lt;Tipo&gt;();&#xa;    +devolver_cant_claves():int" style="text;strokeColor=none;fillColor=none;align=left;verticalAlign=top;spacingLeft=4;spacingRight=4;overflow=hidden;rotatable=0;points=[[0,0.5],[1,0.5]];portConstraint=eastwest;" parent="XbEgYG8BNr4pHZJZ6MSk-5" vertex="1">
          <mxGeometry y="60" width="460" height="190" as="geometry" />
        </mxCell>
        <mxCell id="XbEgYG8BNr4pHZJZ6MSk-12" value="Nodo" style="swimlane;fontStyle=1;align=center;verticalAlign=top;childLayout=stackLayout;horizontal=1;startSize=26;horizontalStack=0;resizeParent=1;resizeParentMax=0;resizeLast=0;collapsible=1;marginBottom=0;" parent="1" vertex="1">
          <mxGeometry x="340" y="-719.87" width="370" height="350" as="geometry" />
        </mxCell>
        <mxCell id="XbEgYG8BNr4pHZJZ6MSk-16" style="edgeStyle=orthogonalEdgeStyle;rounded=0;orthogonalLoop=1;jettySize=auto;html=1;exitX=1;exitY=0.5;exitDx=0;exitDy=0;" parent="XbEgYG8BNr4pHZJZ6MSk-12" source="XbEgYG8BNr4pHZJZ6MSk-13" target="XbEgYG8BNr4pHZJZ6MSk-12" edge="1">
          <mxGeometry relative="1" as="geometry">
            <Array as="points">
              <mxPoint x="180" y="39" />
              <mxPoint x="180" y="140" />
              <mxPoint x="80" y="140" />
            </Array>
          </mxGeometry>
        </mxCell>
        <mxCell id="XbEgYG8BNr4pHZJZ6MSk-13" value=" - dato:tipo*&#xa;    -clave  string &#xa;    -izquierdo:Nodo&lt;tipo&gt;* &#xa;    -derecho:Nodo&lt;tipo&gt;* &#xa;    -padre:Nodo&lt;tipo&gt;* " style="text;strokeColor=none;fillColor=none;align=left;verticalAlign=top;spacingLeft=4;spacingRight=4;overflow=hidden;rotatable=0;points=[[0,0.5],[1,0.5]];portConstraint=eastwest;" parent="XbEgYG8BNr4pHZJZ6MSk-12" vertex="1">
          <mxGeometry y="26" width="370" height="84" as="geometry" />
        </mxCell>
        <mxCell id="XbEgYG8BNr4pHZJZ6MSk-14" value="" style="line;strokeWidth=1;fillColor=none;align=left;verticalAlign=middle;spacingTop=-1;spacingLeft=3;spacingRight=3;rotatable=0;labelPosition=right;points=[];portConstraint=eastwest;" parent="XbEgYG8BNr4pHZJZ6MSk-12" vertex="1">
          <mxGeometry y="110" width="370" height="8" as="geometry" />
        </mxCell>
        <mxCell id="XbEgYG8BNr4pHZJZ6MSk-15" value=" +Nodo(tipo *dato, string clave);&#xa;    +obtener_dato():tipo*&#xa;  +devolver_clave()  string &#xa;    +definir_dato(tipo *dato, string clave_nueva):void&#xa;    +definir_derecho(Nodo&lt;tipo&gt;* derecho, Nodo&lt;tipo&gt;* padre):void&#xa;    +definir_izquierdo(Nodo&lt;tipo&gt;* izquierdo, Nodo&lt;tipo&gt;* padre):void&#xa;    +definir_izquierdo(Nodo&lt;tipo&gt;* izquierdo):void&#xa;    +definir_derecho(Nodo&lt;tipo&gt;* derecho):void&#xa;    +definir_raiz(Nodo&lt;tipo&gt;* padre):void&#xa;    +obtener_derecho(): Nodo&lt;tipo&gt;* &#xa;    +obtener_izquierdo(): Nodo&lt;tipo&gt;* &#xa;    +obtener_raiz(): Nodo&lt;tipo&gt;* &#xa;    +es_hoja():  bool &#xa;    +solo_hijo_derecho():  bool &#xa;    +solo_hijo_izquierdo():  bool &#xa;    ~Nodo();" style="text;strokeColor=none;fillColor=none;align=left;verticalAlign=top;spacingLeft=4;spacingRight=4;overflow=hidden;rotatable=0;points=[[0,0.5],[1,0.5]];portConstraint=eastwest;" parent="XbEgYG8BNr4pHZJZ6MSk-12" vertex="1">
          <mxGeometry y="118" width="370" height="232" as="geometry" />
        </mxCell>
        <mxCell id="XbEgYG8BNr4pHZJZ6MSk-17" style="edgeStyle=orthogonalEdgeStyle;rounded=0;orthogonalLoop=1;jettySize=auto;html=1;" parent="XbEgYG8BNr4pHZJZ6MSk-12" source="XbEgYG8BNr4pHZJZ6MSk-12" target="XbEgYG8BNr4pHZJZ6MSk-15" edge="1">
          <mxGeometry relative="1" as="geometry" />
        </mxCell>
        <mxCell id="XbEgYG8BNr4pHZJZ6MSk-18" value="" style="endArrow=diamondThin;endFill=1;endSize=24;html=1;rounded=0;exitX=0.5;exitY=0;exitDx=0;exitDy=0;" parent="1" source="XbEgYG8BNr4pHZJZ6MSk-12" target="XbEgYG8BNr4pHZJZ6MSk-8" edge="1">
          <mxGeometry width="160" relative="1" as="geometry">
            <mxPoint x="-680" y="-669.67" as="sourcePoint" />
            <mxPoint x="-520" y="-669.67" as="targetPoint" />
          </mxGeometry>
        </mxCell>
        <mxCell id="XbEgYG8BNr4pHZJZ6MSk-19" value="0..*" style="text;html=1;align=center;verticalAlign=middle;resizable=0;points=[];autosize=1;strokeColor=none;fillColor=none;" parent="1" vertex="1">
          <mxGeometry x="395" y="-836.67" width="30" height="20" as="geometry" />
        </mxCell>
        <mxCell id="XbEgYG8BNr4pHZJZ6MSk-29" style="edgeStyle=orthogonalEdgeStyle;rounded=0;orthogonalLoop=1;jettySize=auto;html=1;entryX=0.48;entryY=1;entryDx=0;entryDy=0;entryPerimeter=0;endArrow=block;endFill=0;" parent="1" source="XbEgYG8BNr4pHZJZ6MSk-20" target="B9S7GfdaR4YtxmO8wC_m-8" edge="1">
          <mxGeometry relative="1" as="geometry" />
        </mxCell>
        <mxCell id="XbEgYG8BNr4pHZJZ6MSk-20" value="Jugador_1" style="swimlane;fontStyle=1;align=center;verticalAlign=top;childLayout=stackLayout;horizontal=1;startSize=26;horizontalStack=0;resizeParent=1;resizeParentMax=0;resizeLast=0;collapsible=1;marginBottom=0;" parent="1" vertex="1">
          <mxGeometry x="-1280" y="-388" width="250" height="100" as="geometry" />
        </mxCell>
        <mxCell id="XbEgYG8BNr4pHZJZ6MSk-22" value="" style="line;strokeWidth=1;fillColor=none;align=left;verticalAlign=middle;spacingTop=-1;spacingLeft=3;spacingRight=3;rotatable=0;labelPosition=right;points=[];portConstraint=eastwest;" parent="XbEgYG8BNr4pHZJZ6MSk-20" vertex="1">
          <mxGeometry y="26" width="250" height="8" as="geometry" />
        </mxCell>
        <mxCell id="XbEgYG8BNr4pHZJZ6MSk-23" value="+Jugador_1()&#xa;    +coste_casilla_especial(char tipo_casilla):int &#xa;    +devolver_num_jugador_rival():int &#xa;    +mostrar_jugador():void " style="text;strokeColor=none;fillColor=none;align=left;verticalAlign=top;spacingLeft=4;spacingRight=4;overflow=hidden;rotatable=0;points=[[0,0.5],[1,0.5]];portConstraint=eastwest;" parent="XbEgYG8BNr4pHZJZ6MSk-20" vertex="1">
          <mxGeometry y="34" width="250" height="66" as="geometry" />
        </mxCell>
        <mxCell id="XbEgYG8BNr4pHZJZ6MSk-32" style="edgeStyle=orthogonalEdgeStyle;rounded=0;orthogonalLoop=1;jettySize=auto;html=1;endArrow=block;endFill=0;entryX=0.529;entryY=1.003;entryDx=0;entryDy=0;entryPerimeter=0;" parent="1" source="XbEgYG8BNr4pHZJZ6MSk-25" target="B9S7GfdaR4YtxmO8wC_m-8" edge="1">
          <mxGeometry relative="1" as="geometry">
            <mxPoint x="-795" y="-528" as="targetPoint" />
            <Array as="points">
              <mxPoint x="-400" y="-459" />
              <mxPoint x="-762" y="-459" />
            </Array>
          </mxGeometry>
        </mxCell>
        <mxCell id="XbEgYG8BNr4pHZJZ6MSk-25" value="Jugador_2" style="swimlane;fontStyle=1;align=center;verticalAlign=top;childLayout=stackLayout;horizontal=1;startSize=26;horizontalStack=0;resizeParent=1;resizeParentMax=0;resizeLast=0;collapsible=1;marginBottom=0;" parent="1" vertex="1">
          <mxGeometry x="-525" y="-388" width="250" height="100" as="geometry" />
        </mxCell>
        <mxCell id="XbEgYG8BNr4pHZJZ6MSk-26" value="" style="line;strokeWidth=1;fillColor=none;align=left;verticalAlign=middle;spacingTop=-1;spacingLeft=3;spacingRight=3;rotatable=0;labelPosition=right;points=[];portConstraint=eastwest;" parent="XbEgYG8BNr4pHZJZ6MSk-25" vertex="1">
          <mxGeometry y="26" width="250" height="8" as="geometry" />
        </mxCell>
        <mxCell id="XbEgYG8BNr4pHZJZ6MSk-27" value="+Jugador_2()&#xa;    +coste_casilla_especial(char tipo_casilla):int &#xa;    +devolver_num_jugador_rival():int &#xa;    +mostrar_jugador():void " style="text;strokeColor=none;fillColor=none;align=left;verticalAlign=top;spacingLeft=4;spacingRight=4;overflow=hidden;rotatable=0;points=[[0,0.5],[1,0.5]];portConstraint=eastwest;" parent="XbEgYG8BNr4pHZJZ6MSk-25" vertex="1">
          <mxGeometry y="34" width="250" height="66" as="geometry" />
        </mxCell>
        <mxCell id="XbEgYG8BNr4pHZJZ6MSk-36" value="Material" style="swimlane;fontStyle=1;align=center;verticalAlign=top;childLayout=stackLayout;horizontal=1;startSize=26;horizontalStack=0;resizeParent=1;resizeParentMax=0;resizeLast=0;collapsible=1;marginBottom=0;strokeColor=#000000;fillColor=#FFFFFF;" parent="1" vertex="1">
          <mxGeometry x="700" y="-110" width="450" height="228" as="geometry" />
        </mxCell>
        <mxCell id="XbEgYG8BNr4pHZJZ6MSk-37" value="-tipo:char&#xa;-stock:int&#xa;-nombre_material:string&#xa;-fila:int&#xa;-columna:int&#xa;" style="text;strokeColor=none;fillColor=none;align=left;verticalAlign=top;spacingLeft=4;spacingRight=4;overflow=hidden;rotatable=0;points=[[0,0.5],[1,0.5]];portConstraint=eastwest;" parent="XbEgYG8BNr4pHZJZ6MSk-36" vertex="1">
          <mxGeometry y="26" width="450" height="74" as="geometry" />
        </mxCell>
        <mxCell id="XbEgYG8BNr4pHZJZ6MSk-38" value="" style="line;strokeWidth=1;fillColor=none;align=left;verticalAlign=middle;spacingTop=-1;spacingLeft=3;spacingRight=3;rotatable=0;labelPosition=right;points=[];portConstraint=eastwest;" parent="XbEgYG8BNr4pHZJZ6MSk-36" vertex="1">
          <mxGeometry y="100" width="450" height="8" as="geometry" />
        </mxCell>
        <mxCell id="XbEgYG8BNr4pHZJZ6MSk-39" value="+Material(string nombre,int stock,int fila,int columna,char caracter_es)&#xa;+mostrar():void&#xa;+devolver_nombre():string&#xa;+devolver_stock():int&#xa;+devolver_simbolo():char&#xa;+imprimir_mensaje():void&#xa;+devolver_fila():int&#xa;+devolver_columna():int" style="text;strokeColor=none;fillColor=none;align=left;verticalAlign=top;spacingLeft=4;spacingRight=4;overflow=hidden;rotatable=0;points=[[0,0.5],[1,0.5]];portConstraint=eastwest;" parent="XbEgYG8BNr4pHZJZ6MSk-36" vertex="1">
          <mxGeometry y="108" width="450" height="120" as="geometry" />
        </mxCell>
        <mxCell id="XbEgYG8BNr4pHZJZ6MSk-40" value="Edificio" style="swimlane;fontStyle=3;align=center;verticalAlign=top;childLayout=stackLayout;horizontal=1;startSize=26;horizontalStack=0;resizeParent=1;resizeParentMax=0;resizeLast=0;collapsible=1;marginBottom=0;strokeColor=#000000;fillColor=#FFFFFF;dashed=1;" parent="1" vertex="1">
          <mxGeometry x="1480" y="-1290" width="1010" height="518" as="geometry" />
        </mxCell>
        <mxCell id="XbEgYG8BNr4pHZJZ6MSk-41" value=" -nombre_edificio:string &#xa;    -cant_max_construidos:int &#xa;    -piedra:int &#xa;    -madera:int &#xa;    -metal:int &#xa;    -cant_construidos:int &#xa;    -produccion:int &#xa;    -simbolo:char" style="text;strokeColor=none;fillColor=none;align=left;verticalAlign=top;spacingLeft=4;spacingRight=4;overflow=hidden;rotatable=0;points=[[0,0.5],[1,0.5]];portConstraint=eastwest;dashed=1;" parent="XbEgYG8BNr4pHZJZ6MSk-40" vertex="1">
          <mxGeometry y="26" width="1010" height="124" as="geometry" />
        </mxCell>
        <mxCell id="XbEgYG8BNr4pHZJZ6MSk-42" value="" style="line;strokeWidth=1;fillColor=none;align=left;verticalAlign=middle;spacingTop=-1;spacingLeft=3;spacingRight=3;rotatable=0;labelPosition=right;points=[];portConstraint=eastwest;dashed=1;" parent="XbEgYG8BNr4pHZJZ6MSk-40" vertex="1">
          <mxGeometry y="150" width="1010" height="8" as="geometry" />
        </mxCell>
        <mxCell id="XbEgYG8BNr4pHZJZ6MSk-43" value="+devolver_cantidad_piedra():int &#xa;  +devolver_cantidad_madera():int &#xa;  +devolver_cantidad_metal():int &#xa;  Edificios(string nombre ,int piedra,int madera,int metal,int cant_max_construidos);&#xa;  +devolver_nombre():string &#xa;  +cuanto_produce():int &#xa;  +devolver_simbolo():char&#xa;  +devolver_max_construccion():int &#xa;  +modificar_material_del_edificio(int cantidad_material,int material):void &#xa;  +cant_material_requerido(string material):int &#xa;  + hay_material(string nombre_material,int cantidad_material_jugador):  bool&#xa;  + hay_materiales_suficiente(ABB &lt;Materiales_jugador&gt; *arbol_materiales_jugador,string accion):  bool&#xa;  +hay_espacio(int cantidad_construidos):  bool&#xa;  +agregar_edificacion_no_existente(Vector &lt;Edificios_jugador&gt; *arbol_edificios_jugador,int fila,int columna):void &#xa;  +agregar_edificacion_existente(Edificios_jugador *edificio_jugador,int fila,int columna):void &#xa;  +agregar_edificacion(Edificios_jugador* edificio_jugador,bool tiene_alguno_construido,Mapa *mapa,int fil,int col,Vector &lt;Edificios_jugador&gt;:void *arbol_edificios_jugador,int num_jugador);&#xa;  +construir_edificacion(Vector &lt;Edificios_jugador&gt; *vector_edificios_jugador,ABB &lt;Materiales_jugador&gt; *arbol_materiales_jugador,Mapa *mapa,int num_jugador):int &#xa;  +modificar_cantidad_material(Materiales_jugador *material_a_actualizar,int cantidad):void &#xa;  +modificar_materiales(ABB &lt;Materiales_jugador&gt; *arbol_materiales_jugador,int operacion):void &#xa;  +demoler_edificio(int num_jugador,Mapa *mapa,ABB &lt;Materiales_jugador&gt; *arbol_materiales_jugador,Vector &lt;Edificios_jugador&gt; *vector_edificios_jugador,int:int    fila,int columna);&#xa;  +modificar_edificio():void &#xa;  +imprimir_caracteristicas_edificio():void &#xa;  +imprimir_mensaje() = 0:virtual void &#xa;  +tipo_produccion() = 0:virtual const string &#xa;  virtual~Edificios();" style="text;strokeColor=none;fillColor=none;align=left;verticalAlign=top;spacingLeft=4;spacingRight=4;overflow=hidden;rotatable=0;points=[[0,0.5],[1,0.5]];portConstraint=eastwest;dashed=1;" parent="XbEgYG8BNr4pHZJZ6MSk-40" vertex="1">
          <mxGeometry y="158" width="1010" height="360" as="geometry" />
        </mxCell>
        <mxCell id="XbEgYG8BNr4pHZJZ6MSk-46" value="" style="endArrow=block;endFill=0;endSize=12;html=1;rounded=0;labelBackgroundColor=default;fontFamily=Helvetica;fontSize=11;fontColor=default;strokeColor=default;strokeWidth=1;jumpSize=3;entryX=0.502;entryY=1.033;entryDx=0;entryDy=0;entryPerimeter=0;" parent="1" target="B9S7GfdaR4YtxmO8wC_m-98" edge="1">
          <mxGeometry width="160" relative="1" as="geometry">
            <mxPoint x="-610" y="200" as="sourcePoint" />
            <mxPoint x="-540" y="200" as="targetPoint" />
          </mxGeometry>
        </mxCell>
        <mxCell id="B9S7GfdaR4YtxmO8wC_m-160" value="" style="endArrow=none;html=1;rounded=0;curved=1;exitX=0.571;exitY=-0.024;exitDx=0;exitDy=0;exitPerimeter=0;" parent="1" source="B9S7GfdaR4YtxmO8wC_m-136" edge="1">
          <mxGeometry width="50" height="50" relative="1" as="geometry">
            <mxPoint x="-80" y="408" as="sourcePoint" />
            <mxPoint x="-80" y="228" as="targetPoint" />
          </mxGeometry>
        </mxCell>
        <mxCell id="XbEgYG8BNr4pHZJZ6MSk-48" value="Lista" style="swimlane;fontStyle=1;align=center;verticalAlign=top;childLayout=stackLayout;horizontal=1;startSize=26;horizontalStack=0;resizeParent=1;resizeParentMax=0;resizeLast=0;collapsible=1;marginBottom=0;fontFamily=Helvetica;fontSize=11;fontColor=default;strokeColor=#000000;fillColor=#FFFFFF;" parent="1" vertex="1">
          <mxGeometry x="-2240.2" y="-680" width="200" height="160" as="geometry" />
        </mxCell>
        <mxCell id="XbEgYG8BNr4pHZJZ6MSk-49" value="-cantidadDeElementos: int&#xa;  -primero:Nodo&lt;Tipo&gt;* &#xa;  -ultimo:Nodo&lt;Tipo&gt;* " style="text;strokeColor=none;fillColor=none;align=left;verticalAlign=top;spacingLeft=4;spacingRight=4;overflow=hidden;rotatable=0;points=[[0,0.5],[1,0.5]];portConstraint=eastwest;fontFamily=Helvetica;fontSize=11;fontColor=default;" parent="XbEgYG8BNr4pHZJZ6MSk-48" vertex="1">
          <mxGeometry y="26" width="200" height="44" as="geometry" />
        </mxCell>
        <mxCell id="XbEgYG8BNr4pHZJZ6MSk-50" value="" style="line;strokeWidth=1;fillColor=none;align=left;verticalAlign=middle;spacingTop=-1;spacingLeft=3;spacingRight=3;rotatable=0;labelPosition=right;points=[];portConstraint=eastwest;fontFamily=Helvetica;fontSize=11;fontColor=default;" parent="XbEgYG8BNr4pHZJZ6MSk-48" vertex="1">
          <mxGeometry y="70" width="200" height="8" as="geometry" />
        </mxCell>
        <mxCell id="XbEgYG8BNr4pHZJZ6MSk-51" value="Lista();&#xa;+obtenerCantidadDeElementos():  int&#xa;+obtenerPosicion(string nombre):  int&#xa;+obtenerNombre(int posicion):string &#xa;agregar(string nuevoElemento):void &#xa;" style="text;strokeColor=none;fillColor=none;align=left;verticalAlign=top;spacingLeft=4;spacingRight=4;overflow=hidden;rotatable=0;points=[[0,0.5],[1,0.5]];portConstraint=eastwest;fontFamily=Helvetica;fontSize=11;fontColor=default;" parent="XbEgYG8BNr4pHZJZ6MSk-48" vertex="1">
          <mxGeometry y="78" width="200" height="82" as="geometry" />
        </mxCell>
        <mxCell id="XbEgYG8BNr4pHZJZ6MSk-52" value="Nodo" style="swimlane;fontStyle=1;align=center;verticalAlign=top;childLayout=stackLayout;horizontal=1;startSize=26;horizontalStack=0;resizeParent=1;resizeParentMax=0;resizeLast=0;collapsible=1;marginBottom=0;" parent="1" vertex="1">
          <mxGeometry x="-2280.2" y="-322" width="270" height="160" as="geometry" />
        </mxCell>
        <mxCell id="XbEgYG8BNr4pHZJZ6MSk-53" style="edgeStyle=orthogonalEdgeStyle;rounded=0;orthogonalLoop=1;jettySize=auto;html=1;exitX=1;exitY=0.5;exitDx=0;exitDy=0;" parent="XbEgYG8BNr4pHZJZ6MSk-52" source="XbEgYG8BNr4pHZJZ6MSk-54" target="XbEgYG8BNr4pHZJZ6MSk-52" edge="1">
          <mxGeometry relative="1" as="geometry">
            <Array as="points">
              <mxPoint x="180" y="39" />
              <mxPoint x="180" y="140" />
              <mxPoint x="80" y="140" />
            </Array>
          </mxGeometry>
        </mxCell>
        <mxCell id="XbEgYG8BNr4pHZJZ6MSk-54" value="  -elemento:Tipo* &#xa;    -siguiente:Nodo&lt;Tipo" style="text;strokeColor=none;fillColor=none;align=left;verticalAlign=top;spacingLeft=4;spacingRight=4;overflow=hidden;rotatable=0;points=[[0,0.5],[1,0.5]];portConstraint=eastwest;" parent="XbEgYG8BNr4pHZJZ6MSk-52" vertex="1">
          <mxGeometry y="26" width="270" height="44" as="geometry" />
        </mxCell>
        <mxCell id="XbEgYG8BNr4pHZJZ6MSk-55" value="" style="line;strokeWidth=1;fillColor=none;align=left;verticalAlign=middle;spacingTop=-1;spacingLeft=3;spacingRight=3;rotatable=0;labelPosition=right;points=[];portConstraint=eastwest;" parent="XbEgYG8BNr4pHZJZ6MSk-52" vertex="1">
          <mxGeometry y="70" width="270" height="8" as="geometry" />
        </mxCell>
        <mxCell id="XbEgYG8BNr4pHZJZ6MSk-56" value=" +(string nombre):Nodo&#xa;    +obtenerSiguiente():Nodo&lt;Tipo&gt;*&#xa;    +obtenerNombre():string&#xa;    +asignarSiguiente(Nodo2&lt;Tipo&gt;* siguiente):void&#xa;    ~Nodo2();" style="text;strokeColor=none;fillColor=none;align=left;verticalAlign=top;spacingLeft=4;spacingRight=4;overflow=hidden;rotatable=0;points=[[0,0.5],[1,0.5]];portConstraint=eastwest;" parent="XbEgYG8BNr4pHZJZ6MSk-52" vertex="1">
          <mxGeometry y="78" width="270" height="82" as="geometry" />
        </mxCell>
        <mxCell id="XbEgYG8BNr4pHZJZ6MSk-62" style="edgeStyle=orthogonalEdgeStyle;rounded=0;jumpSize=3;orthogonalLoop=1;jettySize=auto;html=1;entryX=0.464;entryY=1.028;entryDx=0;entryDy=0;entryPerimeter=0;labelBackgroundColor=default;fontFamily=Helvetica;fontSize=11;fontColor=default;endArrow=blockThin;endFill=1;strokeColor=default;strokeWidth=1;" parent="XbEgYG8BNr4pHZJZ6MSk-52" source="XbEgYG8BNr4pHZJZ6MSk-56" target="XbEgYG8BNr4pHZJZ6MSk-56" edge="1">
          <mxGeometry relative="1" as="geometry">
            <Array as="points">
              <mxPoint x="-20" y="119" />
              <mxPoint x="-20" y="180" />
              <mxPoint x="125" y="180" />
            </Array>
          </mxGeometry>
        </mxCell>
        <mxCell id="XbEgYG8BNr4pHZJZ6MSk-58" value="0..*" style="text;html=1;align=center;verticalAlign=middle;resizable=0;points=[];autosize=1;strokeColor=none;fillColor=none;" parent="1" vertex="1">
          <mxGeometry x="-1259.09" y="-490" width="30" height="20" as="geometry" />
        </mxCell>
        <mxCell id="XbEgYG8BNr4pHZJZ6MSk-59" style="edgeStyle=orthogonalEdgeStyle;rounded=0;jumpSize=3;orthogonalLoop=1;jettySize=auto;html=1;labelBackgroundColor=default;fontFamily=Helvetica;fontSize=11;fontColor=default;endArrow=diamondThin;endFill=1;strokeColor=default;strokeWidth=1;" parent="1" source="XbEgYG8BNr4pHZJZ6MSk-56" target="XbEgYG8BNr4pHZJZ6MSk-51" edge="1">
          <mxGeometry relative="1" as="geometry" />
        </mxCell>
        <mxCell id="XbEgYG8BNr4pHZJZ6MSk-61" value="0..*" style="edgeLabel;html=1;align=center;verticalAlign=middle;resizable=0;points=[];fontSize=11;fontFamily=Helvetica;fontColor=default;" parent="XbEgYG8BNr4pHZJZ6MSk-59" vertex="1" connectable="0">
          <mxGeometry x="0.5719" relative="1" as="geometry">
            <mxPoint as="offset" />
          </mxGeometry>
        </mxCell>
        <mxCell id="XbEgYG8BNr4pHZJZ6MSk-63" value="Grafo" style="swimlane;fontStyle=1;align=center;verticalAlign=top;childLayout=stackLayout;horizontal=1;startSize=26;horizontalStack=0;resizeParent=1;resizeParentMax=0;resizeLast=0;collapsible=1;marginBottom=0;fontFamily=Helvetica;fontSize=11;fontColor=default;strokeColor=#000000;fillColor=#FFFFFF;" parent="1" vertex="1">
          <mxGeometry x="-1800" y="-970" width="240" height="230" as="geometry" />
        </mxCell>
        <mxCell id="XbEgYG8BNr4pHZJZ6MSk-64" value="-matrizDeAdyacencia:int ** &#xa;    -vertices:Lista&lt;Vertice&gt; * &#xa;    -algoritmoCaminoMinimo:CaminoMinimo * &#xa;    -algoritmo:Dijkstra *&#xa;    -costo_camino:int " style="text;strokeColor=none;fillColor=none;align=left;verticalAlign=top;spacingLeft=4;spacingRight=4;overflow=hidden;rotatable=0;points=[[0,0.5],[1,0.5]];portConstraint=eastwest;fontFamily=Helvetica;fontSize=11;fontColor=default;" parent="XbEgYG8BNr4pHZJZ6MSk-63" vertex="1">
          <mxGeometry y="26" width="240" height="74" as="geometry" />
        </mxCell>
        <mxCell id="XbEgYG8BNr4pHZJZ6MSk-65" value="" style="line;strokeWidth=1;fillColor=none;align=left;verticalAlign=middle;spacingTop=-1;spacingLeft=3;spacingRight=3;rotatable=0;labelPosition=right;points=[];portConstraint=eastwest;fontFamily=Helvetica;fontSize=11;fontColor=default;" parent="XbEgYG8BNr4pHZJZ6MSk-63" vertex="1">
          <mxGeometry y="100" width="240" height="8" as="geometry" />
        </mxCell>
        <mxCell id="XbEgYG8BNr4pHZJZ6MSk-66" value="-caminoMinimo(int origen, int destino):&#xa;        -agrandarMatrizDeAdyacencia():&#xa;        -copiarMatrizAdyacente(int** nuevaAdyacente):&#xa;        -inicializarNuevoVertice(int** nuevaAdyacente):&#xa;        -liberarMatrizAdyacencia():&#xa;        -mostrarVertices():&#xa;        -mostrarMatrizAdyacencia():&#xa;(...)" style="text;strokeColor=none;fillColor=none;align=left;verticalAlign=top;spacingLeft=4;spacingRight=4;overflow=hidden;rotatable=0;points=[[0,0.5],[1,0.5]];portConstraint=eastwest;fontFamily=Helvetica;fontSize=11;fontColor=default;" parent="XbEgYG8BNr4pHZJZ6MSk-63" vertex="1">
          <mxGeometry y="108" width="240" height="122" as="geometry" />
        </mxCell>
        <mxCell id="XbEgYG8BNr4pHZJZ6MSk-67" value="Vertice" style="swimlane;fontStyle=1;align=center;verticalAlign=top;childLayout=stackLayout;horizontal=1;startSize=26;horizontalStack=0;resizeParent=1;resizeParentMax=0;resizeLast=0;collapsible=1;marginBottom=0;fontFamily=Helvetica;fontSize=11;fontColor=default;strokeColor=#000000;fillColor=#FFFFFF;" parent="1" vertex="1">
          <mxGeometry x="-2160" y="-11" width="160" height="110" as="geometry" />
        </mxCell>
        <mxCell id="XbEgYG8BNr4pHZJZ6MSk-68" value="-nombre:string" style="text;strokeColor=none;fillColor=none;align=left;verticalAlign=top;spacingLeft=4;spacingRight=4;overflow=hidden;rotatable=0;points=[[0,0.5],[1,0.5]];portConstraint=eastwest;fontFamily=Helvetica;fontSize=11;fontColor=default;" parent="XbEgYG8BNr4pHZJZ6MSk-67" vertex="1">
          <mxGeometry y="26" width="160" height="26" as="geometry" />
        </mxCell>
        <mxCell id="XbEgYG8BNr4pHZJZ6MSk-69" value="" style="line;strokeWidth=1;fillColor=none;align=left;verticalAlign=middle;spacingTop=-1;spacingLeft=3;spacingRight=3;rotatable=0;labelPosition=right;points=[];portConstraint=eastwest;fontFamily=Helvetica;fontSize=11;fontColor=default;" parent="XbEgYG8BNr4pHZJZ6MSk-67" vertex="1">
          <mxGeometry y="52" width="160" height="8" as="geometry" />
        </mxCell>
        <mxCell id="XbEgYG8BNr4pHZJZ6MSk-70" value="+Vertice(string nombre);&#xa;+obtenerNombre():string&#xa;    ~Vertice()" style="text;strokeColor=none;fillColor=none;align=left;verticalAlign=top;spacingLeft=4;spacingRight=4;overflow=hidden;rotatable=0;points=[[0,0.5],[1,0.5]];portConstraint=eastwest;fontFamily=Helvetica;fontSize=11;fontColor=default;" parent="XbEgYG8BNr4pHZJZ6MSk-67" vertex="1">
          <mxGeometry y="60" width="160" height="50" as="geometry" />
        </mxCell>
        <mxCell id="XbEgYG8BNr4pHZJZ6MSk-71" value="Dijkstra" style="swimlane;fontStyle=1;align=center;verticalAlign=top;childLayout=stackLayout;horizontal=1;startSize=26;horizontalStack=0;resizeParent=1;resizeParentMax=0;resizeLast=0;collapsible=1;marginBottom=0;fontFamily=Helvetica;fontSize=11;fontColor=default;strokeColor=#000000;fillColor=#FFFFFF;" parent="1" vertex="1">
          <mxGeometry x="-1840" y="-640" width="300" height="310" as="geometry" />
        </mxCell>
        <mxCell id="XbEgYG8BNr4pHZJZ6MSk-72" value="-verticesVisitados:bool *&#xa;   -distancia:int *&#xa;   -recorrido:int *&#xa;    -camino:Vector&lt;string&gt;* &#xa;    -hay_camino:bool &#xa;    -costo_camino:int" style="text;strokeColor=none;fillColor=none;align=left;verticalAlign=top;spacingLeft=4;spacingRight=4;overflow=hidden;rotatable=0;points=[[0,0.5],[1,0.5]];portConstraint=eastwest;fontFamily=Helvetica;fontSize=11;fontColor=default;" parent="XbEgYG8BNr4pHZJZ6MSk-71" vertex="1">
          <mxGeometry y="26" width="300" height="94" as="geometry" />
        </mxCell>
        <mxCell id="XbEgYG8BNr4pHZJZ6MSk-73" value="" style="line;strokeWidth=1;fillColor=none;align=left;verticalAlign=middle;spacingTop=-1;spacingLeft=3;spacingRight=3;rotatable=0;labelPosition=right;points=[];portConstraint=eastwest;fontFamily=Helvetica;fontSize=11;fontColor=default;" parent="XbEgYG8BNr4pHZJZ6MSk-71" vertex="1">
          <mxGeometry y="120" width="300" height="8" as="geometry" />
        </mxCell>
        <mxCell id="XbEgYG8BNr4pHZJZ6MSk-74" value="-inicializarVisitados(int origen):void&#xa;    -inicializarDistancia(const int * distanciaOrigen):void&#xa;    -inicializarRecorrido(int origen):void&#xa;    -verticeMinimaDistancia():int&#xa;    -actualizarDistancia(int vertice):void&#xa;    -mostrarRecorrido(int origen, int destino):void&#xa;    -mostrarIteracion(int iteracion):void&#xa;    +Dijkstra(Lista&lt;Vertice&gt; * vertices, int ** matrizAdyacencia);&#xa;    +caminoMinimo(int origen, int destino) override:void&#xa;    +devolver_camino():Vector&lt;string&gt;* &#xa;    +devolver_hay_camino():bool &#xa;    +devolver_costo_camino():int&#xa;    ~Dijkstra() override;" style="text;strokeColor=none;fillColor=none;align=left;verticalAlign=top;spacingLeft=4;spacingRight=4;overflow=hidden;rotatable=0;points=[[0,0.5],[1,0.5]];portConstraint=eastwest;fontFamily=Helvetica;fontSize=11;fontColor=default;" parent="XbEgYG8BNr4pHZJZ6MSk-71" vertex="1">
          <mxGeometry y="128" width="300" height="182" as="geometry" />
        </mxCell>
        <mxCell id="9u-WLB0nQkdjOtFHLijK-18" style="edgeStyle=orthogonalEdgeStyle;rounded=0;orthogonalLoop=1;jettySize=auto;html=1;exitX=0.5;exitY=0;exitDx=0;exitDy=0;endArrow=none;endFill=0;strokeColor=#12040B;strokeWidth=1;" parent="1" source="XbEgYG8BNr4pHZJZ6MSk-77" edge="1">
          <mxGeometry relative="1" as="geometry">
            <mxPoint x="1591" y="-640" as="targetPoint" />
          </mxGeometry>
        </mxCell>
        <mxCell id="XbEgYG8BNr4pHZJZ6MSk-77" value="Mina" style="swimlane;fontStyle=1;align=center;verticalAlign=top;childLayout=stackLayout;horizontal=1;startSize=26;horizontalStack=0;resizeParent=1;resizeParentMax=0;resizeLast=0;collapsible=1;marginBottom=0;fontFamily=Helvetica;fontSize=11;fontColor=default;strokeColor=#000000;fillColor=#FFFFFF;" parent="1" vertex="1">
          <mxGeometry x="1390" y="-430" width="400" height="80" as="geometry" />
        </mxCell>
        <mxCell id="XbEgYG8BNr4pHZJZ6MSk-79" value="" style="line;strokeWidth=1;fillColor=none;align=left;verticalAlign=middle;spacingTop=-1;spacingLeft=3;spacingRight=3;rotatable=0;labelPosition=right;points=[];portConstraint=eastwest;fontFamily=Helvetica;fontSize=11;fontColor=default;" parent="XbEgYG8BNr4pHZJZ6MSk-77" vertex="1">
          <mxGeometry y="26" width="400" height="8" as="geometry" />
        </mxCell>
        <mxCell id="XbEgYG8BNr4pHZJZ6MSk-80" value="+Mina(string nombre ,int pidra,int madera, int metal, int cant_max_construidos);&#xa;    +tipo_produccion():const string &#xa;    +imprimir_mensaje():void&#xa;" style="text;strokeColor=none;fillColor=none;align=left;verticalAlign=top;spacingLeft=4;spacingRight=4;overflow=hidden;rotatable=0;points=[[0,0.5],[1,0.5]];portConstraint=eastwest;fontFamily=Helvetica;fontSize=11;fontColor=default;" parent="XbEgYG8BNr4pHZJZ6MSk-77" vertex="1">
          <mxGeometry y="34" width="400" height="46" as="geometry" />
        </mxCell>
        <mxCell id="9u-WLB0nQkdjOtFHLijK-23" style="edgeStyle=orthogonalEdgeStyle;rounded=0;orthogonalLoop=1;jettySize=auto;html=1;endArrow=none;endFill=0;strokeColor=#12040B;strokeWidth=1;" parent="1" source="XbEgYG8BNr4pHZJZ6MSk-81" edge="1">
          <mxGeometry relative="1" as="geometry">
            <mxPoint x="3000" y="-640" as="targetPoint" />
          </mxGeometry>
        </mxCell>
        <mxCell id="XbEgYG8BNr4pHZJZ6MSk-81" value="Fabrica" style="swimlane;fontStyle=1;align=center;verticalAlign=top;childLayout=stackLayout;horizontal=1;startSize=26;horizontalStack=0;resizeParent=1;resizeParentMax=0;resizeLast=0;collapsible=1;marginBottom=0;fontFamily=Helvetica;fontSize=11;fontColor=default;strokeColor=#000000;fillColor=#FFFFFF;" parent="1" vertex="1">
          <mxGeometry x="2800" y="-570" width="400" height="80" as="geometry" />
        </mxCell>
        <mxCell id="XbEgYG8BNr4pHZJZ6MSk-82" value="" style="line;strokeWidth=1;fillColor=none;align=left;verticalAlign=middle;spacingTop=-1;spacingLeft=3;spacingRight=3;rotatable=0;labelPosition=right;points=[];portConstraint=eastwest;fontFamily=Helvetica;fontSize=11;fontColor=default;" parent="XbEgYG8BNr4pHZJZ6MSk-81" vertex="1">
          <mxGeometry y="26" width="400" height="8" as="geometry" />
        </mxCell>
        <mxCell id="XbEgYG8BNr4pHZJZ6MSk-83" value="+Fabrica(string nombre ,int pidra,int madera, int metal, int cant_max_construidos);&#xa;    +tipo_produccion():const string &#xa;    +imprimir_mensaje():void&#xa;" style="text;strokeColor=none;fillColor=none;align=left;verticalAlign=top;spacingLeft=4;spacingRight=4;overflow=hidden;rotatable=0;points=[[0,0.5],[1,0.5]];portConstraint=eastwest;fontFamily=Helvetica;fontSize=11;fontColor=default;" parent="XbEgYG8BNr4pHZJZ6MSk-81" vertex="1">
          <mxGeometry y="34" width="400" height="46" as="geometry" />
        </mxCell>
        <mxCell id="9u-WLB0nQkdjOtFHLijK-19" style="edgeStyle=orthogonalEdgeStyle;rounded=0;orthogonalLoop=1;jettySize=auto;html=1;exitX=0.5;exitY=0;exitDx=0;exitDy=0;endArrow=none;endFill=0;strokeColor=#12040B;strokeWidth=1;" parent="1" source="XbEgYG8BNr4pHZJZ6MSk-84" edge="1">
          <mxGeometry relative="1" as="geometry">
            <mxPoint x="1861" y="-640" as="targetPoint" />
          </mxGeometry>
        </mxCell>
        <mxCell id="XbEgYG8BNr4pHZJZ6MSk-84" value="Mina Oro" style="swimlane;fontStyle=1;align=center;verticalAlign=top;childLayout=stackLayout;horizontal=1;startSize=26;horizontalStack=0;resizeParent=1;resizeParentMax=0;resizeLast=0;collapsible=1;marginBottom=0;fontFamily=Helvetica;fontSize=11;fontColor=default;strokeColor=#000000;fillColor=#FFFFFF;" parent="1" vertex="1">
          <mxGeometry x="1660" y="-570" width="400" height="80" as="geometry" />
        </mxCell>
        <mxCell id="XbEgYG8BNr4pHZJZ6MSk-85" value="" style="line;strokeWidth=1;fillColor=none;align=left;verticalAlign=middle;spacingTop=-1;spacingLeft=3;spacingRight=3;rotatable=0;labelPosition=right;points=[];portConstraint=eastwest;fontFamily=Helvetica;fontSize=11;fontColor=default;" parent="XbEgYG8BNr4pHZJZ6MSk-84" vertex="1">
          <mxGeometry y="26" width="400" height="8" as="geometry" />
        </mxCell>
        <mxCell id="XbEgYG8BNr4pHZJZ6MSk-86" value="+Mina_oro(string nombre ,int pidra,int madera, int metal, int cant_max_construidos);&#xa;    +tipo_produccion():const string &#xa;    +imprimir_mensaje():void&#xa;" style="text;strokeColor=none;fillColor=none;align=left;verticalAlign=top;spacingLeft=4;spacingRight=4;overflow=hidden;rotatable=0;points=[[0,0.5],[1,0.5]];portConstraint=eastwest;fontFamily=Helvetica;fontSize=11;fontColor=default;" parent="XbEgYG8BNr4pHZJZ6MSk-84" vertex="1">
          <mxGeometry y="34" width="400" height="46" as="geometry" />
        </mxCell>
        <mxCell id="9u-WLB0nQkdjOtFHLijK-22" style="edgeStyle=orthogonalEdgeStyle;rounded=0;orthogonalLoop=1;jettySize=auto;html=1;endArrow=none;endFill=0;strokeColor=#12040B;strokeWidth=1;" parent="1" source="XbEgYG8BNr4pHZJZ6MSk-87" edge="1">
          <mxGeometry relative="1" as="geometry">
            <mxPoint x="2723" y="-640" as="targetPoint" />
          </mxGeometry>
        </mxCell>
        <mxCell id="XbEgYG8BNr4pHZJZ6MSk-87" value="Escuela" style="swimlane;fontStyle=1;align=center;verticalAlign=top;childLayout=stackLayout;horizontal=1;startSize=26;horizontalStack=0;resizeParent=1;resizeParentMax=0;resizeLast=0;collapsible=1;marginBottom=0;fontFamily=Helvetica;fontSize=11;fontColor=default;strokeColor=#000000;fillColor=#FFFFFF;" parent="1" vertex="1">
          <mxGeometry x="2523" y="-430" width="400" height="80" as="geometry" />
        </mxCell>
        <mxCell id="XbEgYG8BNr4pHZJZ6MSk-88" value="" style="line;strokeWidth=1;fillColor=none;align=left;verticalAlign=middle;spacingTop=-1;spacingLeft=3;spacingRight=3;rotatable=0;labelPosition=right;points=[];portConstraint=eastwest;fontFamily=Helvetica;fontSize=11;fontColor=default;" parent="XbEgYG8BNr4pHZJZ6MSk-87" vertex="1">
          <mxGeometry y="26" width="400" height="8" as="geometry" />
        </mxCell>
        <mxCell id="XbEgYG8BNr4pHZJZ6MSk-89" value="+Escuela(string nombre ,int pidra,int madera, int metal, int cant_max_construidos);&#xa;    +tipo_produccion():const string &#xa;    +imprimir_mensaje():void&#xa;" style="text;strokeColor=none;fillColor=none;align=left;verticalAlign=top;spacingLeft=4;spacingRight=4;overflow=hidden;rotatable=0;points=[[0,0.5],[1,0.5]];portConstraint=eastwest;fontFamily=Helvetica;fontSize=11;fontColor=default;" parent="XbEgYG8BNr4pHZJZ6MSk-87" vertex="1">
          <mxGeometry y="34" width="400" height="46" as="geometry" />
        </mxCell>
        <mxCell id="9u-WLB0nQkdjOtFHLijK-20" style="edgeStyle=orthogonalEdgeStyle;rounded=0;orthogonalLoop=1;jettySize=auto;html=1;exitX=0.5;exitY=0;exitDx=0;exitDy=0;endArrow=none;endFill=0;strokeColor=#12040B;strokeWidth=1;" parent="1" source="XbEgYG8BNr4pHZJZ6MSk-90" edge="1">
          <mxGeometry relative="1" as="geometry">
            <mxPoint x="2441" y="-640" as="targetPoint" />
          </mxGeometry>
        </mxCell>
        <mxCell id="XbEgYG8BNr4pHZJZ6MSk-90" value="Planta electrica" style="swimlane;fontStyle=1;align=center;verticalAlign=top;childLayout=stackLayout;horizontal=1;startSize=26;horizontalStack=0;resizeParent=1;resizeParentMax=0;resizeLast=0;collapsible=1;marginBottom=0;fontFamily=Helvetica;fontSize=11;fontColor=default;strokeColor=#000000;fillColor=#FFFFFF;" parent="1" vertex="1">
          <mxGeometry x="2240" y="-560" width="400" height="80" as="geometry" />
        </mxCell>
        <mxCell id="XbEgYG8BNr4pHZJZ6MSk-91" value="" style="line;strokeWidth=1;fillColor=none;align=left;verticalAlign=middle;spacingTop=-1;spacingLeft=3;spacingRight=3;rotatable=0;labelPosition=right;points=[];portConstraint=eastwest;fontFamily=Helvetica;fontSize=11;fontColor=default;" parent="XbEgYG8BNr4pHZJZ6MSk-90" vertex="1">
          <mxGeometry y="26" width="400" height="8" as="geometry" />
        </mxCell>
        <mxCell id="XbEgYG8BNr4pHZJZ6MSk-92" value="+Planta electrica(string nombre ,int pidra,int madera, int metal, int cant_max_construidos);&#xa;    +tipo_produccion():const string &#xa;    +imprimir_mensaje():void&#xa;" style="text;strokeColor=none;fillColor=none;align=left;verticalAlign=top;spacingLeft=4;spacingRight=4;overflow=hidden;rotatable=0;points=[[0,0.5],[1,0.5]];portConstraint=eastwest;fontFamily=Helvetica;fontSize=11;fontColor=default;" parent="XbEgYG8BNr4pHZJZ6MSk-90" vertex="1">
          <mxGeometry y="34" width="400" height="46" as="geometry" />
        </mxCell>
        <mxCell id="9u-WLB0nQkdjOtFHLijK-21" style="edgeStyle=orthogonalEdgeStyle;rounded=0;orthogonalLoop=1;jettySize=auto;html=1;exitX=0.5;exitY=0;exitDx=0;exitDy=0;endArrow=none;endFill=0;strokeColor=#12040B;strokeWidth=1;" parent="1" source="XbEgYG8BNr4pHZJZ6MSk-93" edge="1">
          <mxGeometry relative="1" as="geometry">
            <mxPoint x="2131" y="-640" as="targetPoint" />
          </mxGeometry>
        </mxCell>
        <mxCell id="XbEgYG8BNr4pHZJZ6MSk-93" value="Obelisco" style="swimlane;fontStyle=1;align=center;verticalAlign=top;childLayout=stackLayout;horizontal=1;startSize=26;horizontalStack=0;resizeParent=1;resizeParentMax=0;resizeLast=0;collapsible=1;marginBottom=0;fontFamily=Helvetica;fontSize=11;fontColor=default;strokeColor=#000000;fillColor=#FFFFFF;" parent="1" vertex="1">
          <mxGeometry x="1930" y="-430" width="400" height="80" as="geometry" />
        </mxCell>
        <mxCell id="XbEgYG8BNr4pHZJZ6MSk-94" value="" style="line;strokeWidth=1;fillColor=none;align=left;verticalAlign=middle;spacingTop=-1;spacingLeft=3;spacingRight=3;rotatable=0;labelPosition=right;points=[];portConstraint=eastwest;fontFamily=Helvetica;fontSize=11;fontColor=default;" parent="XbEgYG8BNr4pHZJZ6MSk-93" vertex="1">
          <mxGeometry y="26" width="400" height="8" as="geometry" />
        </mxCell>
        <mxCell id="XbEgYG8BNr4pHZJZ6MSk-95" value="+Obelisco(string nombre ,int pidra,int madera, int metal, int cant_max_construidos);&#xa;    +tipo_produccion():const string &#xa;    +imprimir_mensaje():void&#xa;" style="text;strokeColor=none;fillColor=none;align=left;verticalAlign=top;spacingLeft=4;spacingRight=4;overflow=hidden;rotatable=0;points=[[0,0.5],[1,0.5]];portConstraint=eastwest;fontFamily=Helvetica;fontSize=11;fontColor=default;" parent="XbEgYG8BNr4pHZJZ6MSk-93" vertex="1">
          <mxGeometry y="34" width="400" height="46" as="geometry" />
        </mxCell>
        <mxCell id="9u-WLB0nQkdjOtFHLijK-24" style="edgeStyle=orthogonalEdgeStyle;rounded=0;orthogonalLoop=1;jettySize=auto;html=1;endArrow=none;endFill=0;strokeColor=#12040B;strokeWidth=1;" parent="1" source="XbEgYG8BNr4pHZJZ6MSk-96" edge="1">
          <mxGeometry relative="1" as="geometry">
            <mxPoint x="3300" y="-640" as="targetPoint" />
          </mxGeometry>
        </mxCell>
        <mxCell id="XbEgYG8BNr4pHZJZ6MSk-96" value="Aserradero" style="swimlane;fontStyle=1;align=center;verticalAlign=top;childLayout=stackLayout;horizontal=1;startSize=26;horizontalStack=0;resizeParent=1;resizeParentMax=0;resizeLast=0;collapsible=1;marginBottom=0;fontFamily=Helvetica;fontSize=11;fontColor=default;strokeColor=#000000;fillColor=#FFFFFF;" parent="1" vertex="1">
          <mxGeometry x="3100" y="-430" width="400" height="80" as="geometry" />
        </mxCell>
        <mxCell id="XbEgYG8BNr4pHZJZ6MSk-97" value="" style="line;strokeWidth=1;fillColor=none;align=left;verticalAlign=middle;spacingTop=-1;spacingLeft=3;spacingRight=3;rotatable=0;labelPosition=right;points=[];portConstraint=eastwest;fontFamily=Helvetica;fontSize=11;fontColor=default;" parent="XbEgYG8BNr4pHZJZ6MSk-96" vertex="1">
          <mxGeometry y="26" width="400" height="8" as="geometry" />
        </mxCell>
        <mxCell id="XbEgYG8BNr4pHZJZ6MSk-98" value="+Aserradero(string nombre ,int pidra,int madera, int metal, int cant_max_construidos);&#xa;    +tipo_produccion():const string &#xa;    +imprimir_mensaje():void&#xa;" style="text;strokeColor=none;fillColor=none;align=left;verticalAlign=top;spacingLeft=4;spacingRight=4;overflow=hidden;rotatable=0;points=[[0,0.5],[1,0.5]];portConstraint=eastwest;fontFamily=Helvetica;fontSize=11;fontColor=default;" parent="XbEgYG8BNr4pHZJZ6MSk-96" vertex="1">
          <mxGeometry y="34" width="400" height="46" as="geometry" />
        </mxCell>
        <mxCell id="XbEgYG8BNr4pHZJZ6MSk-102" style="edgeStyle=orthogonalEdgeStyle;rounded=0;jumpSize=3;orthogonalLoop=1;jettySize=auto;html=1;labelBackgroundColor=default;fontFamily=Helvetica;fontSize=11;fontColor=default;endArrow=openThin;endFill=0;strokeColor=default;strokeWidth=1;" parent="1" source="B9S7GfdaR4YtxmO8wC_m-21" target="B9S7GfdaR4YtxmO8wC_m-65" edge="1">
          <mxGeometry relative="1" as="geometry" />
        </mxCell>
        <mxCell id="XbEgYG8BNr4pHZJZ6MSk-104" style="edgeStyle=orthogonalEdgeStyle;rounded=0;jumpSize=3;orthogonalLoop=1;jettySize=auto;html=1;exitX=0.999;exitY=0.83;exitDx=0;exitDy=0;entryX=-0.006;entryY=0.627;entryDx=0;entryDy=0;entryPerimeter=0;labelBackgroundColor=default;fontFamily=Helvetica;fontSize=11;fontColor=default;endArrow=openThin;endFill=0;strokeColor=#D12F1D;strokeWidth=4;fillColor=#f8cecc;exitPerimeter=0;" parent="1" source="B9S7GfdaR4YtxmO8wC_m-21" target="XbEgYG8BNr4pHZJZ6MSk-4" edge="1">
          <mxGeometry relative="1" as="geometry">
            <Array as="points">
              <mxPoint x="150" y="-1770" />
              <mxPoint x="150" y="-1447" />
            </Array>
          </mxGeometry>
        </mxCell>
        <mxCell id="XbEgYG8BNr4pHZJZ6MSk-105" style="edgeStyle=orthogonalEdgeStyle;rounded=0;jumpSize=3;orthogonalLoop=1;jettySize=auto;html=1;labelBackgroundColor=default;fontFamily=Helvetica;fontSize=11;fontColor=default;endArrow=openThin;endFill=0;strokeColor=#D12F1D;strokeWidth=4;entryX=0.55;entryY=0;entryDx=0;entryDy=0;entryPerimeter=0;" parent="1" source="XbEgYG8BNr4pHZJZ6MSk-4" target="B9S7GfdaR4YtxmO8wC_m-95" edge="1">
          <mxGeometry relative="1" as="geometry">
            <mxPoint x="-170" y="140" as="targetPoint" />
            <Array as="points">
              <mxPoint x="795" y="-1280" />
              <mxPoint x="-10" y="-1280" />
              <mxPoint x="-10" y="-70" />
              <mxPoint x="-600" y="-70" />
            </Array>
          </mxGeometry>
        </mxCell>
        <mxCell id="XbEgYG8BNr4pHZJZ6MSk-106" style="edgeStyle=orthogonalEdgeStyle;rounded=0;jumpSize=3;orthogonalLoop=1;jettySize=auto;html=1;entryX=0.004;entryY=0.287;entryDx=0;entryDy=0;entryPerimeter=0;labelBackgroundColor=default;fontFamily=Helvetica;fontSize=11;fontColor=default;endArrow=openThin;endFill=0;strokeColor=#00CC00;strokeWidth=4;" parent="1" source="B9S7GfdaR4YtxmO8wC_m-21" target="XbEgYG8BNr4pHZJZ6MSk-8" edge="1">
          <mxGeometry relative="1" as="geometry">
            <Array as="points">
              <mxPoint x="220" y="-1820" />
              <mxPoint x="220" y="-1055" />
            </Array>
          </mxGeometry>
        </mxCell>
        <mxCell id="ndRQhPqN1KHyrbLDTJ4m-1" style="edgeStyle=orthogonalEdgeStyle;rounded=0;orthogonalLoop=1;jettySize=auto;html=1;entryX=0.75;entryY=0;entryDx=0;entryDy=0;strokeColor=#00CC00;strokeWidth=4;" parent="1" source="XbEgYG8BNr4pHZJZ6MSk-8" target="XbEgYG8BNr4pHZJZ6MSk-12" edge="1">
          <mxGeometry relative="1" as="geometry">
            <Array as="points">
              <mxPoint x="770" y="-1024.67" />
              <mxPoint x="770" y="-779.67" />
              <mxPoint x="618" y="-779.67" />
            </Array>
          </mxGeometry>
        </mxCell>
        <mxCell id="ndRQhPqN1KHyrbLDTJ4m-4" style="edgeStyle=orthogonalEdgeStyle;rounded=0;orthogonalLoop=1;jettySize=auto;html=1;strokeColor=#00CC00;strokeWidth=4;" parent="1" source="XbEgYG8BNr4pHZJZ6MSk-15" target="XbEgYG8BNr4pHZJZ6MSk-39" edge="1">
          <mxGeometry relative="1" as="geometry" />
        </mxCell>
        <mxCell id="9u-WLB0nQkdjOtFHLijK-1" style="edgeStyle=orthogonalEdgeStyle;rounded=0;orthogonalLoop=1;jettySize=auto;html=1;entryX=0.017;entryY=0.25;entryDx=0;entryDy=0;entryPerimeter=0;strokeWidth=4;endArrow=classicThin;endFill=1;strokeColor=#3333FF;" parent="1" source="B9S7GfdaR4YtxmO8wC_m-21" target="XbEgYG8BNr4pHZJZ6MSk-7" edge="1">
          <mxGeometry relative="1" as="geometry">
            <Array as="points">
              <mxPoint x="100" y="-1710" />
              <mxPoint x="100" y="-1116" />
            </Array>
          </mxGeometry>
        </mxCell>
        <mxCell id="9u-WLB0nQkdjOtFHLijK-3" style="edgeStyle=orthogonalEdgeStyle;rounded=0;orthogonalLoop=1;jettySize=auto;html=1;exitX=0;exitY=0.5;exitDx=0;exitDy=0;entryX=0;entryY=0.5;entryDx=0;entryDy=0;endArrow=classicThin;endFill=1;strokeColor=#3333FF;strokeWidth=4;" parent="1" source="XbEgYG8BNr4pHZJZ6MSk-8" target="XbEgYG8BNr4pHZJZ6MSk-15" edge="1">
          <mxGeometry relative="1" as="geometry" />
        </mxCell>
        <mxCell id="9u-WLB0nQkdjOtFHLijK-4" style="edgeStyle=orthogonalEdgeStyle;rounded=0;orthogonalLoop=1;jettySize=auto;html=1;entryX=-0.007;entryY=0.35;entryDx=0;entryDy=0;entryPerimeter=0;endArrow=classicThin;endFill=1;strokeColor=#3333FF;strokeWidth=4;" parent="1" source="XbEgYG8BNr4pHZJZ6MSk-15" target="XbEgYG8BNr4pHZJZ6MSk-43" edge="1">
          <mxGeometry relative="1" as="geometry" />
        </mxCell>
        <mxCell id="9u-WLB0nQkdjOtFHLijK-5" style="edgeStyle=orthogonalEdgeStyle;rounded=0;orthogonalLoop=1;jettySize=auto;html=1;entryX=0.147;entryY=0.998;entryDx=0;entryDy=0;entryPerimeter=0;endArrow=classicThin;endFill=1;strokeColor=#FF8000;strokeWidth=4;" parent="1" source="XbEgYG8BNr4pHZJZ6MSk-27" target="XbEgYG8BNr4pHZJZ6MSk-8" edge="1">
          <mxGeometry relative="1" as="geometry">
            <Array as="points">
              <mxPoint x="-270" y="-321" />
              <mxPoint x="-270" y="-360" />
              <mxPoint x="150" y="-360" />
              <mxPoint x="150" y="-910" />
              <mxPoint x="358" y="-910" />
            </Array>
          </mxGeometry>
        </mxCell>
        <mxCell id="9u-WLB0nQkdjOtFHLijK-6" style="edgeStyle=orthogonalEdgeStyle;rounded=0;orthogonalLoop=1;jettySize=auto;html=1;endArrow=classicThin;endFill=1;strokeColor=#FF8000;strokeWidth=4;entryX=0.638;entryY=-0.002;entryDx=0;entryDy=0;entryPerimeter=0;" parent="1" source="XbEgYG8BNr4pHZJZ6MSk-8" target="XbEgYG8BNr4pHZJZ6MSk-12" edge="1">
          <mxGeometry relative="1" as="geometry">
            <Array as="points">
              <mxPoint x="820" y="-1059.67" />
              <mxPoint x="820" y="-824.67" />
              <mxPoint x="576" y="-824.67" />
            </Array>
          </mxGeometry>
        </mxCell>
        <mxCell id="9u-WLB0nQkdjOtFHLijK-7" value="Materiales Jugador" style="swimlane;fontStyle=1;align=center;verticalAlign=top;childLayout=stackLayout;horizontal=1;startSize=26;horizontalStack=0;resizeParent=1;resizeParentMax=0;resizeLast=0;collapsible=1;marginBottom=0;" parent="1" vertex="1">
          <mxGeometry x="1370" y="-170" width="390" height="248" as="geometry" />
        </mxCell>
        <mxCell id="9u-WLB0nQkdjOtFHLijK-8" value="string nombre;&#xa;    int vida;&#xa;    Vector &lt;Coordenadas_edificios&gt; *vector_coordenadas;&#xa;" style="text;strokeColor=none;fillColor=none;align=left;verticalAlign=top;spacingLeft=4;spacingRight=4;overflow=hidden;rotatable=0;points=[[0,0.5],[1,0.5]];portConstraint=eastwest;" parent="9u-WLB0nQkdjOtFHLijK-7" vertex="1">
          <mxGeometry y="26" width="390" height="54" as="geometry" />
        </mxCell>
        <mxCell id="9u-WLB0nQkdjOtFHLijK-9" value="" style="line;strokeWidth=1;fillColor=none;align=left;verticalAlign=middle;spacingTop=-1;spacingLeft=3;spacingRight=3;rotatable=0;labelPosition=right;points=[];portConstraint=eastwest;" parent="9u-WLB0nQkdjOtFHLijK-7" vertex="1">
          <mxGeometry y="80" width="390" height="8" as="geometry" />
        </mxCell>
        <mxCell id="9u-WLB0nQkdjOtFHLijK-10" value=" +Edificios_jugador(string nombre, int fila, int columna)&#xa;    +agregar_edificio(int fila,int columna):void&#xa;    +eliminar_edificacion(int fila,int columna,bool *es_ultimo_edificio);   :void&#xa;    +aumentar_ronda_producida():void&#xa;    +reinciar_rondas():void&#xa;    +devolver_rondas_producidas():  int&#xa;    +devolver_construidos():  int&#xa;    +devolver_columna(int pos):  int&#xa;    +devolver_fila(int pos):  int&#xa;    +devolver_nombre():string&#xa;    ~Edificios_jugador()" style="text;strokeColor=none;fillColor=none;align=left;verticalAlign=top;spacingLeft=4;spacingRight=4;overflow=hidden;rotatable=0;points=[[0,0.5],[1,0.5]];portConstraint=eastwest;" parent="9u-WLB0nQkdjOtFHLijK-7" vertex="1">
          <mxGeometry y="88" width="390" height="160" as="geometry" />
        </mxCell>
        <mxCell id="9u-WLB0nQkdjOtFHLijK-11" style="edgeStyle=orthogonalEdgeStyle;rounded=0;orthogonalLoop=1;jettySize=auto;html=1;endArrow=classicThin;endFill=1;strokeColor=#FF8000;strokeWidth=4;" parent="1" source="XbEgYG8BNr4pHZJZ6MSk-15" edge="1" target="9u-WLB0nQkdjOtFHLijK-7">
          <mxGeometry relative="1" as="geometry">
            <mxPoint x="1380" y="-180" as="targetPoint" />
            <Array as="points">
              <mxPoint x="1360" y="-420" />
              <mxPoint x="1360" y="-240" />
              <mxPoint x="1565" y="-240" />
            </Array>
          </mxGeometry>
        </mxCell>
        <mxCell id="9u-WLB0nQkdjOtFHLijK-14" style="edgeStyle=orthogonalEdgeStyle;rounded=0;orthogonalLoop=1;jettySize=auto;html=1;endArrow=classicThin;endFill=1;strokeColor=#FF3399;strokeWidth=4;entryX=-0.01;entryY=0.644;entryDx=0;entryDy=0;entryPerimeter=0;" parent="1" source="XbEgYG8BNr4pHZJZ6MSk-23" target="XbEgYG8BNr4pHZJZ6MSk-8" edge="1">
          <mxGeometry relative="1" as="geometry">
            <mxPoint x="580" y="-810" as="targetPoint" />
            <Array as="points">
              <mxPoint x="-1155" y="-250" />
              <mxPoint x="90" y="-250" />
              <mxPoint x="90" y="-997" />
            </Array>
          </mxGeometry>
        </mxCell>
        <mxCell id="9u-WLB0nQkdjOtFHLijK-15" style="edgeStyle=orthogonalEdgeStyle;rounded=0;orthogonalLoop=1;jettySize=auto;html=1;endArrow=classicThin;endFill=1;strokeColor=#FF3399;strokeWidth=4;" parent="1" source="XbEgYG8BNr4pHZJZ6MSk-8" edge="1">
          <mxGeometry relative="1" as="geometry">
            <mxPoint x="450" y="-729.6699999999995" as="targetPoint" />
            <Array as="points">
              <mxPoint x="200" y="-969.67" />
              <mxPoint x="200" y="-829.67" />
              <mxPoint x="450" y="-829.67" />
            </Array>
          </mxGeometry>
        </mxCell>
        <mxCell id="9u-WLB0nQkdjOtFHLijK-16" style="edgeStyle=orthogonalEdgeStyle;rounded=0;orthogonalLoop=1;jettySize=auto;html=1;entryX=0;entryY=0.5;entryDx=0;entryDy=0;endArrow=classicThin;endFill=1;strokeColor=#FF3399;strokeWidth=4;" parent="1" source="XbEgYG8BNr4pHZJZ6MSk-15" target="9u-WLB0nQkdjOtFHLijK-8" edge="1">
          <mxGeometry relative="1" as="geometry">
            <Array as="points">
              <mxPoint x="1235" y="-440" />
              <mxPoint x="1235" y="-117" />
            </Array>
          </mxGeometry>
        </mxCell>
        <mxCell id="9u-WLB0nQkdjOtFHLijK-17" value="" style="endArrow=none;html=1;rounded=0;strokeColor=#12040B;strokeWidth=1;" parent="1" edge="1">
          <mxGeometry width="50" height="50" relative="1" as="geometry">
            <mxPoint x="3300" y="-640" as="sourcePoint" />
            <mxPoint x="1590" y="-640" as="targetPoint" />
          </mxGeometry>
        </mxCell>
        <mxCell id="9u-WLB0nQkdjOtFHLijK-26" value="" style="endArrow=block;html=1;rounded=0;strokeColor=#12040B;strokeWidth=1;entryX=0.688;entryY=1.003;entryDx=0;entryDy=0;entryPerimeter=0;endFill=0;" parent="1" target="XbEgYG8BNr4pHZJZ6MSk-43" edge="1">
          <mxGeometry width="50" height="50" relative="1" as="geometry">
            <mxPoint x="2180" y="-640" as="sourcePoint" />
            <mxPoint x="2230" y="-690" as="targetPoint" />
          </mxGeometry>
        </mxCell>
        <mxCell id="9u-WLB0nQkdjOtFHLijK-27" style="edgeStyle=orthogonalEdgeStyle;rounded=0;orthogonalLoop=1;jettySize=auto;html=1;entryX=1;entryY=0.5;entryDx=0;entryDy=0;endArrow=classic;endFill=1;strokeColor=#12040B;strokeWidth=1;" parent="1" target="XbEgYG8BNr4pHZJZ6MSk-74" edge="1">
          <mxGeometry relative="1" as="geometry">
            <mxPoint x="-1540" y="-920" as="sourcePoint" />
            <Array as="points">
              <mxPoint x="-1500" y="-920" />
              <mxPoint x="-1500" y="-590" />
              <mxPoint x="-1520" y="-590" />
              <mxPoint x="-1520" y="-421" />
            </Array>
          </mxGeometry>
        </mxCell>
        <mxCell id="9u-WLB0nQkdjOtFHLijK-28" style="edgeStyle=orthogonalEdgeStyle;rounded=0;orthogonalLoop=1;jettySize=auto;html=1;entryX=0.5;entryY=0;entryDx=0;entryDy=0;endArrow=classic;endFill=1;strokeColor=#12040B;strokeWidth=1;" parent="1" source="XbEgYG8BNr4pHZJZ6MSk-64" target="XbEgYG8BNr4pHZJZ6MSk-48" edge="1">
          <mxGeometry relative="1" as="geometry" />
        </mxCell>
        <mxCell id="9u-WLB0nQkdjOtFHLijK-29" style="edgeStyle=orthogonalEdgeStyle;rounded=0;orthogonalLoop=1;jettySize=auto;html=1;entryX=1.094;entryY=-0.32;entryDx=0;entryDy=0;entryPerimeter=0;endArrow=classic;endFill=1;strokeColor=#12040B;strokeWidth=1;" parent="1" source="XbEgYG8BNr4pHZJZ6MSk-56" target="XbEgYG8BNr4pHZJZ6MSk-70" edge="1">
          <mxGeometry relative="1" as="geometry">
            <Array as="points">
              <mxPoint x="-1790" y="-203" />
              <mxPoint x="-1790" y="-57" />
              <mxPoint x="-1780" y="-57" />
              <mxPoint x="-1780" y="33" />
            </Array>
          </mxGeometry>
        </mxCell>
        <mxCell id="9u-WLB0nQkdjOtFHLijK-30" value="Parser Camino" style="swimlane;fontStyle=1;align=center;verticalAlign=top;childLayout=stackLayout;horizontal=1;startSize=26;horizontalStack=0;resizeParent=1;resizeParentMax=0;resizeLast=0;collapsible=1;marginBottom=0;" parent="1" vertex="1">
          <mxGeometry x="1940" y="-1960" width="310" height="100" as="geometry" />
        </mxCell>
        <mxCell id="9u-WLB0nQkdjOtFHLijK-31" value="-entrada:string" style="text;strokeColor=none;fillColor=none;align=left;verticalAlign=top;spacingLeft=4;spacingRight=4;overflow=hidden;rotatable=0;points=[[0,0.5],[1,0.5]];portConstraint=eastwest;" parent="9u-WLB0nQkdjOtFHLijK-30" vertex="1">
          <mxGeometry y="26" width="310" height="26" as="geometry" />
        </mxCell>
        <mxCell id="9u-WLB0nQkdjOtFHLijK-32" value="" style="line;strokeWidth=1;fillColor=none;align=left;verticalAlign=middle;spacingTop=-1;spacingLeft=3;spacingRight=3;rotatable=0;labelPosition=right;points=[];portConstraint=eastwest;" parent="9u-WLB0nQkdjOtFHLijK-30" vertex="1">
          <mxGeometry y="52" width="310" height="8" as="geometry" />
        </mxCell>
        <mxCell id="9u-WLB0nQkdjOtFHLijK-33" value="+Parser_casillas(char letra);&#xa;+Casillero* procesar_entrada();&#xa;  " style="text;strokeColor=none;fillColor=none;align=left;verticalAlign=top;spacingLeft=4;spacingRight=4;overflow=hidden;rotatable=0;points=[[0,0.5],[1,0.5]];portConstraint=eastwest;" parent="9u-WLB0nQkdjOtFHLijK-30" vertex="1">
          <mxGeometry y="60" width="310" height="40" as="geometry" />
        </mxCell>
        <mxCell id="9u-WLB0nQkdjOtFHLijK-34" value="Parser Edificio" style="swimlane;fontStyle=1;align=center;verticalAlign=top;childLayout=stackLayout;horizontal=1;startSize=26;horizontalStack=0;resizeParent=1;resizeParentMax=0;resizeLast=0;collapsible=1;marginBottom=0;" parent="1" vertex="1">
          <mxGeometry x="1910" y="-1784" width="370" height="130" as="geometry" />
        </mxCell>
        <mxCell id="9u-WLB0nQkdjOtFHLijK-35" value="-entrada:string" style="text;strokeColor=none;fillColor=none;align=left;verticalAlign=top;spacingLeft=4;spacingRight=4;overflow=hidden;rotatable=0;points=[[0,0.5],[1,0.5]];portConstraint=eastwest;" parent="9u-WLB0nQkdjOtFHLijK-34" vertex="1">
          <mxGeometry y="26" width="370" height="26" as="geometry" />
        </mxCell>
        <mxCell id="9u-WLB0nQkdjOtFHLijK-36" value="" style="line;strokeWidth=1;fillColor=none;align=left;verticalAlign=middle;spacingTop=-1;spacingLeft=3;spacingRight=3;rotatable=0;labelPosition=right;points=[];portConstraint=eastwest;" parent="9u-WLB0nQkdjOtFHLijK-34" vertex="1">
          <mxGeometry y="52" width="370" height="8" as="geometry" />
        </mxCell>
        <mxCell id="9u-WLB0nQkdjOtFHLijK-37" value="+Parser_edificios(string nombre_edificio)&#xa;+Edificios* procesar_entrada(ifstream &amp; archivo)&#xa;+string tipo_edificio()&#xa;+string leer_hasta_delimitador(ifstream &amp; archivo, char delimitador)" style="text;strokeColor=none;fillColor=none;align=left;verticalAlign=top;spacingLeft=4;spacingRight=4;overflow=hidden;rotatable=0;points=[[0,0.5],[1,0.5]];portConstraint=eastwest;" parent="9u-WLB0nQkdjOtFHLijK-34" vertex="1">
          <mxGeometry y="60" width="370" height="70" as="geometry" />
        </mxCell>
        <mxCell id="9u-WLB0nQkdjOtFHLijK-38" value="Parser Objetivo" style="swimlane;fontStyle=1;align=center;verticalAlign=top;childLayout=stackLayout;horizontal=1;startSize=26;horizontalStack=0;resizeParent=1;resizeParentMax=0;resizeLast=0;collapsible=1;marginBottom=0;" parent="1" vertex="1">
          <mxGeometry x="1960" y="-2140" width="260" height="110" as="geometry" />
        </mxCell>
        <mxCell id="9u-WLB0nQkdjOtFHLijK-39" value="-entrada:int" style="text;strokeColor=none;fillColor=none;align=left;verticalAlign=top;spacingLeft=4;spacingRight=4;overflow=hidden;rotatable=0;points=[[0,0.5],[1,0.5]];portConstraint=eastwest;" parent="9u-WLB0nQkdjOtFHLijK-38" vertex="1">
          <mxGeometry y="26" width="260" height="26" as="geometry" />
        </mxCell>
        <mxCell id="9u-WLB0nQkdjOtFHLijK-40" value="" style="line;strokeWidth=1;fillColor=none;align=left;verticalAlign=middle;spacingTop=-1;spacingLeft=3;spacingRight=3;rotatable=0;labelPosition=right;points=[];portConstraint=eastwest;" parent="9u-WLB0nQkdjOtFHLijK-38" vertex="1">
          <mxGeometry y="52" width="260" height="8" as="geometry" />
        </mxCell>
        <mxCell id="9u-WLB0nQkdjOtFHLijK-41" value="+Parser_objetivos(int codigo_objetivo);&#xa;+Objetivo* procesar_entrada(Jugador* jugador);" style="text;strokeColor=none;fillColor=none;align=left;verticalAlign=top;spacingLeft=4;spacingRight=4;overflow=hidden;rotatable=0;points=[[0,0.5],[1,0.5]];portConstraint=eastwest;" parent="9u-WLB0nQkdjOtFHLijK-38" vertex="1">
          <mxGeometry y="60" width="260" height="50" as="geometry" />
        </mxCell>
        <mxCell id="5G2xWrDOjVCu_6X8sNw_-1" style="edgeStyle=orthogonalEdgeStyle;rounded=0;orthogonalLoop=1;jettySize=auto;html=1;entryX=0.5;entryY=0;entryDx=0;entryDy=0;" edge="1" parent="1" source="B9S7GfdaR4YtxmO8wC_m-21" target="XbEgYG8BNr4pHZJZ6MSk-63">
          <mxGeometry relative="1" as="geometry">
            <Array as="points">
              <mxPoint x="-590" y="-1550" />
              <mxPoint x="-1210" y="-1550" />
              <mxPoint x="-1210" y="-1030" />
              <mxPoint x="-1680" y="-1030" />
            </Array>
          </mxGeometry>
        </mxCell>
        <mxCell id="5G2xWrDOjVCu_6X8sNw_-2" style="edgeStyle=orthogonalEdgeStyle;rounded=0;orthogonalLoop=1;jettySize=auto;html=1;strokeWidth=4;strokeColor=#17B3A3;entryX=0.998;entryY=0.4;entryDx=0;entryDy=0;entryPerimeter=0;" edge="1" parent="1" source="9u-WLB0nQkdjOtFHLijK-10" target="XbEgYG8BNr4pHZJZ6MSk-8">
          <mxGeometry relative="1" as="geometry">
            <Array as="points">
              <mxPoint x="1210" y="-2" />
              <mxPoint x="1210" y="-1025" />
              <mxPoint x="790" y="-1025" />
              <mxPoint x="790" y="-1044" />
            </Array>
          </mxGeometry>
        </mxCell>
      </root>
    </mxGraphModel>
  </diagram>
</mxfile>
